<?xml version="1.0" encoding="UTF-8" standalone="no"?>
<!DOCTYPE svg PUBLIC "-//W3C//DTD SVG 1.1//EN"
 "http://www.w3.org/Graphics/SVG/1.1/DTD/svg11.dtd">
<!-- Generated by graphviz version 2.46.0 (20210118.1747)
 -->
<!-- Title: Entity Relationship Diagram Pages: 1 -->
<svg width="859pt" height="299pt"
 viewBox="0.00 0.00 859.00 298.50" xmlns="http://www.w3.org/2000/svg" xmlns:xlink="http://www.w3.org/1999/xlink">
<g id="graph0" class="graph" transform="scale(1 1) rotate(0) translate(4 294.5)">
<title>Entity Relationship Diagram</title>
<polygon fill="white" stroke="transparent" points="-4,4 -4,-294.5 855,-294.5 855,4 -4,4"/>
<text text-anchor="middle" x="425.5" y="-6.8" font-family="Times,serif" font-size="9.00" fill="#a8a8a8">Created by erdantic v0.1.0 &lt;https://github.com/drivendataorg/erdantic&gt;</text>
<!-- Adventurer -->
<g id="node1" class="node">
<title>Adventurer</title>
<g id="a_node1"><a xlink:title="erdantic.examples.dataclasses.Adventurer&#10;&#10;A person often late for dinner but with a tale or two to tell.&#10;&#10;Attributes:&#10; &#160;&#160;&#160;name (str): Name of this adventurer&#10; &#160;&#160;&#160;profession (str): Profession of this adventurer&#10; &#160;&#160;&#160;level (int): Level of this adventurer&#10; &#160;&#160;&#160;alignment (int): Alignment of this adventurer">
<polygon fill="none" stroke="black" points="503,-265 503,-286 587,-286 587,-265 503,-265"/>
<text text-anchor="start" x="511" y="-272.8" font-family="Times,serif" font-weight="bold" font-size="14.00">Adventurer</text>
<polygon fill="none" stroke="black" points="503,-244 503,-265 566,-265 566,-244 503,-244"/>
<text text-anchor="start" x="519" y="-250.8" font-family="Times,serif" font-size="14.00">name</text>
<polygon fill="none" stroke="black" points="566,-244 566,-265 587,-265 587,-244 566,-244"/>
<text text-anchor="start" x="569.5" y="-250.8" font-family="Times,serif" font-size="14.00">str</text>
<polygon fill="none" stroke="black" points="503,-223 503,-244 566,-244 566,-223 503,-223"/>
<text text-anchor="start" x="506" y="-229.8" font-family="Times,serif" font-size="14.00">profession</text>
<polygon fill="none" stroke="black" points="566,-223 566,-244 587,-244 587,-223 566,-223"/>
<text text-anchor="start" x="569.5" y="-229.8" font-family="Times,serif" font-size="14.00">str</text>
<polygon fill="none" stroke="black" points="503,-202 503,-223 566,-223 566,-202 503,-202"/>
<text text-anchor="start" x="521" y="-208.8" font-family="Times,serif" font-size="14.00">level</text>
<polygon fill="none" stroke="black" points="566,-202 566,-223 587,-223 587,-202 566,-202"/>
<text text-anchor="start" x="569" y="-208.8" font-family="Times,serif" font-size="14.00">int</text>
<polygon fill="none" stroke="black" points="503,-181 503,-202 566,-202 566,-181 503,-181"/>
<text text-anchor="start" x="514.5" y="-187.8" font-family="Times,serif" font-size="14.00">affinity</text>
<polygon fill="none" stroke="black" points="566,-181 566,-202 587,-202 587,-181 566,-181"/>
<text text-anchor="start" x="569.5" y="-187.8" font-family="Times,serif" font-size="14.00">str</text>
</a>
</g>
</g>
<!-- Party -->
<g id="node2" class="node">
<title>Party</title>
<g id="a_node2"><a xlink:title="erdantic.examples.dataclasses.Party&#10;&#10;A group of adventurers finding themselves doing and saying things altogether unexpected.&#10;&#10;Attributes:&#10; &#160;&#160;&#160;name (str): Name that party is known by&#10; &#160;&#160;&#160;formed_datetime (datetime): Timestamp of when the party was formed&#10; &#160;&#160;&#160;members (List[Adventurer]): Adventurers that belong to this party&#10; &#160;&#160;&#160;active_quest (Optional[Quest]): Current quest that party is actively tackling">
<polygon fill="none" stroke="black" points="0.5,-269 0.5,-290 365.5,-290 365.5,-269 0.5,-269"/>
<text text-anchor="start" x="166.5" y="-276.8" font-family="Times,serif" font-weight="bold" font-size="14.00">Party</text>
<polygon fill="none" stroke="black" points="0.5,-248 0.5,-269 100.5,-269 100.5,-248 0.5,-248"/>
<text text-anchor="start" x="35" y="-254.8" font-family="Times,serif" font-size="14.00">name</text>
<polygon fill="none" stroke="black" points="100.5,-248 100.5,-269 365.5,-269 365.5,-248 100.5,-248"/>
<text text-anchor="start" x="226" y="-254.8" font-family="Times,serif" font-size="14.00">str</text>
<polygon fill="none" stroke="black" points="0.5,-227 0.5,-248 100.5,-248 100.5,-227 0.5,-227"/>
<text text-anchor="start" x="3.5" y="-233.8" font-family="Times,serif" font-size="14.00">formed_datetime</text>
<polygon fill="none" stroke="black" points="100.5,-227 100.5,-248 365.5,-248 365.5,-227 100.5,-227"/>
<text text-anchor="start" x="209" y="-233.8" font-family="Times,serif" font-size="14.00">datetime</text>
<polygon fill="none" stroke="black" points="0.5,-206 0.5,-227 100.5,-227 100.5,-206 0.5,-206"/>
<text text-anchor="start" x="24.5" y="-212.8" font-family="Times,serif" font-size="14.00">members</text>
<polygon fill="none" stroke="black" points="100.5,-206 100.5,-227 365.5,-227 365.5,-206 100.5,-206"/>
<text text-anchor="start" x="103.5" y="-212.8" font-family="Times,serif" font-size="14.00">List[erdantic.examples.dataclasses.Adventurer]</text>
<polygon fill="none" stroke="black" points="0.5,-185 0.5,-206 100.5,-206 100.5,-185 0.5,-185"/>
<text text-anchor="start" x="16.5" y="-191.8" font-family="Times,serif" font-size="14.00">active_quest</text>
<polygon fill="none" stroke="black" points="100.5,-185 100.5,-206 365.5,-206 365.5,-185 100.5,-185"/>
<text text-anchor="start" x="105.5" y="-191.8" font-family="Times,serif" font-size="14.00">Optional[erdantic.examples.dataclasses.Quest]</text>
</a>
</g>
</g>
<!-- Party&#45;&gt;Adventurer -->
<g id="edge1" class="edge">
<title>Party:e&#45;&gt;Adventurer:w</title>
<path fill="none" stroke="black" d="M365,-216C424.85,-216 434.1,-264.64 483.87,-274.33"/>
<polygon fill="black" stroke="black" points="492.04,-275.08 501.59,-280.48 497.02,-275.54 502,-276 502,-276 502,-276 497.02,-275.54 502.41,-271.52 492.04,-275.08 492.04,-275.08"/>
<ellipse fill="none" stroke="black" cx="488.06" cy="-274.72" rx="4" ry="4"/>
</g>
<!-- Quest -->
<g id="node3" class="node">
<title>Quest</title>
<g id="a_node3"><a xlink:title="erdantic.examples.dataclasses.Quest&#10;&#10;A task to complete, with some monetary reward.&#10;&#10;Attributes:&#10; &#160;&#160;&#160;name (str): Name by which this quest is referred to&#10; &#160;&#160;&#160;giver (QuestGiver): Person who offered the quest&#10; &#160;&#160;&#160;reward_gold (int): Amount of gold to be rewarded for quest completion">
<polygon fill="none" stroke="black" points="473,-124 473,-145 617,-145 617,-124 473,-124"/>
<text text-anchor="start" x="527.5" y="-131.8" font-family="Times,serif" font-weight="bold" font-size="14.00">Quest</text>
<polygon fill="none" stroke="black" points="473,-103 473,-124 548,-124 548,-103 473,-103"/>
<text text-anchor="start" x="495" y="-109.8" font-family="Times,serif" font-size="14.00">name</text>
<polygon fill="none" stroke="black" points="548,-103 548,-124 617,-124 617,-103 548,-103"/>
<text text-anchor="start" x="575.5" y="-109.8" font-family="Times,serif" font-size="14.00">str</text>
<polygon fill="none" stroke="black" points="473,-82 473,-103 548,-103 548,-82 473,-82"/>
<text text-anchor="start" x="496.5" y="-88.8" font-family="Times,serif" font-size="14.00">giver</text>
<polygon fill="none" stroke="black" points="548,-82 548,-103 617,-103 617,-82 548,-82"/>
<text text-anchor="start" x="551" y="-88.8" font-family="Times,serif" font-size="14.00">QuestGiver</text>
<polygon fill="none" stroke="black" points="473,-61 473,-82 548,-82 548,-61 473,-61"/>
<text text-anchor="start" x="476" y="-67.8" font-family="Times,serif" font-size="14.00">reward_gold</text>
<polygon fill="none" stroke="black" points="548,-61 548,-82 617,-82 617,-61 548,-61"/>
<text text-anchor="start" x="575" y="-67.8" font-family="Times,serif" font-size="14.00">int</text>
</a>
</g>
</g>
<!-- Party&#45;&gt;Quest -->
<g id="edge2" class="edge">
<title>Party:e&#45;&gt;Quest:w</title>
<path fill="none" stroke="black" d="M365,-195C413.15,-195 417.68,-148.86 455.1,-137.5"/>
<polyline fill="none" stroke="black" points="473,-135 468.05,-135.69 "/>
<polygon fill="black" stroke="black" points="466.37,-130.88 467.75,-140.78 465.77,-141.06 464.39,-131.16 466.37,-130.88"/>
<polyline fill="none" stroke="black" points="468.05,-135.69 463.1,-136.38 "/>
<ellipse fill="none" stroke="black" cx="459.13" cy="-136.94" rx="4" ry="4"/>
</g>
<!-- QuestGiver -->
<g id="node4" class="node">
<title>QuestGiver</title>
<g id="a_node4"><a xlink:title="erdantic.examples.dataclasses.QuestGiver&#10;&#10;A person who offers a task that needs completing.&#10;&#10;Attributes:&#10; &#160;&#160;&#160;name (str): Name of this quest giver&#10; &#160;&#160;&#160;faction (str): Faction that this quest giver belongs to&#10; &#160;&#160;&#160;location (str): Location this quest giver can be found">
<polygon fill="none" stroke="black" points="725,-81 725,-102 851,-102 851,-81 725,-81"/>
<text text-anchor="start" x="753.5" y="-88.8" font-family="Times,serif" font-weight="bold" font-size="14.00">QuestGiver</text>
<polygon fill="none" stroke="black" points="725,-60 725,-81 775,-81 775,-60 725,-60"/>
<text text-anchor="start" x="734.5" y="-66.8" font-family="Times,serif" font-size="14.00">name</text>
<polygon fill="none" stroke="black" points="775,-60 775,-81 851,-81 851,-60 775,-60"/>
<text text-anchor="start" x="806" y="-66.8" font-family="Times,serif" font-size="14.00">str</text>
<polygon fill="none" stroke="black" points="725,-39 725,-60 775,-60 775,-39 725,-39"/>
<text text-anchor="start" x="731" y="-45.8" font-family="Times,serif" font-size="14.00">faction</text>
<polygon fill="none" stroke="black" points="775,-39 775,-60 851,-60 851,-39 775,-39"/>
<text text-anchor="start" x="778" y="-45.8" font-family="Times,serif" font-size="14.00">Optional[str]</text>
<polygon fill="none" stroke="black" points="725,-18 725,-39 775,-39 775,-18 725,-18"/>
<text text-anchor="start" x="728" y="-24.8" font-family="Times,serif" font-size="14.00">location</text>
<polygon fill="none" stroke="black" points="775,-18 775,-39 851,-39 851,-18 775,-18"/>
<text text-anchor="start" x="806" y="-24.8" font-family="Times,serif" font-size="14.00">str</text>
</a>
</g>
</g>
<!-- Quest&#45;&gt;QuestGiver -->
<g id="edge3" class="edge">
<title>Quest:e&#45;&gt;QuestGiver:w</title>
<path fill="none" stroke="black" d="M617,-92C659.56,-92 673.82,-92 709.97,-92"/>
<polyline fill="none" stroke="black" points="725,-92 720,-92 "/>
<polygon fill="black" stroke="black" points="719,-87 719,-97 717,-97 717,-87 719,-87"/>
<polyline fill="none" stroke="black" points="720,-92 715,-92 "/>
<polygon fill="black" stroke="black" points="714,-87 714,-97 712,-97 712,-87 714,-87"/>
<polyline fill="none" stroke="black" points="715,-92 710,-92 "/>
</g>
</g>
</svg>
