<?xml version="1.0" encoding="UTF-8" standalone="no"?>
<!DOCTYPE svg PUBLIC "-//W3C//DTD SVG 1.1//EN"
 "http://www.w3.org/Graphics/SVG/1.1/DTD/svg11.dtd">
<!-- Generated by graphviz version 2.46.0 (20210118.1747)
 -->
<!-- Title: Entity Relationship Diagram Pages: 1 -->
<svg width="774pt" height="315pt"
 viewBox="0.00 0.00 774.00 315.00" xmlns="http://www.w3.org/2000/svg" xmlns:xlink="http://www.w3.org/1999/xlink">
<g id="graph0" class="graph" transform="scale(1 1) rotate(0) translate(4 311)">
<title>Entity Relationship Diagram</title>
<polygon fill="white" stroke="transparent" points="-4,4 -4,-311 770,-311 770,4 -4,4"/>
<text text-anchor="middle" x="383" y="-6.8" font-family="Times,serif" font-size="9.00" fill="#a8a8a8">Created by erdantic v0.1.0 &lt;https://github.com/drivendataorg/erdantic&gt;</text>
<!-- Adventurer -->
<g id="node1" class="node">
<title>Adventurer</title>
<g id="a_node1"><a xlink:title="erdantic.examples.dataclasses.Adventurer&#10;&#10;A person often late for dinner but with a tale or two to tell.&#10;&#10;Attributes:&#10; &#160;&#160;&#160;name (str): Name of this adventurer&#10; &#160;&#160;&#160;profession (str): Profession of this adventurer&#10; &#160;&#160;&#160;level (int): Level of this adventurer&#10; &#160;&#160;&#160;alignment (int): Alignment of this adventurer">
<polygon fill="none" stroke="black" points="306,-286 306,-307 532,-307 532,-286 306,-286"/>
<text text-anchor="start" x="385" y="-293.8" font-family="Times,serif" font-weight="bold" font-size="14.00">Adventurer</text>
<polygon fill="none" stroke="black" points="306,-265 306,-286 387,-286 387,-265 306,-265"/>
<text text-anchor="start" x="331" y="-271.8" font-family="Times,serif" font-size="14.00">name</text>
<polygon fill="none" stroke="black" points="387,-265 387,-286 532,-286 532,-265 387,-265"/>
<text text-anchor="start" x="452.5" y="-271.8" font-family="Times,serif" font-size="14.00">str</text>
<polygon fill="none" stroke="black" points="306,-244 306,-265 387,-265 387,-244 306,-244"/>
<text text-anchor="start" x="318" y="-250.8" font-family="Times,serif" font-size="14.00">profession</text>
<polygon fill="none" stroke="black" points="387,-244 387,-265 532,-265 532,-244 387,-244"/>
<text text-anchor="start" x="452.5" y="-250.8" font-family="Times,serif" font-size="14.00">str</text>
<polygon fill="none" stroke="black" points="306,-223 306,-244 387,-244 387,-223 306,-223"/>
<text text-anchor="start" x="333" y="-229.8" font-family="Times,serif" font-size="14.00">level</text>
<polygon fill="none" stroke="black" points="387,-223 387,-244 532,-244 532,-223 387,-223"/>
<text text-anchor="start" x="452" y="-229.8" font-family="Times,serif" font-size="14.00">int</text>
<polygon fill="none" stroke="black" points="306,-202 306,-223 387,-223 387,-202 306,-202"/>
<text text-anchor="start" x="310.5" y="-208.8" font-family="Times,serif" font-size="14.00">alignment_lc</text>
<polygon fill="none" stroke="black" points="387,-202 387,-223 532,-223 532,-202 387,-202"/>
<text text-anchor="start" x="390" y="-208.8" font-family="Times,serif" font-size="14.00">AlignmentLC(str, Enum)</text>
<polygon fill="none" stroke="black" points="306,-181 306,-202 387,-202 387,-181 306,-181"/>
<text text-anchor="start" x="309" y="-187.8" font-family="Times,serif" font-size="14.00">alignment_ge</text>
<polygon fill="none" stroke="black" points="387,-181 387,-202 532,-202 532,-181 387,-181"/>
<text text-anchor="start" x="390" y="-187.8" font-family="Times,serif" font-size="14.00">AlignmentGE(str, Enum)</text>
</a>
</g>
</g>
<!-- Party -->
<g id="node2" class="node">
<title>Party</title>
<g id="a_node2"><a xlink:title="erdantic.examples.dataclasses.Party&#10;&#10;A group of adventurers finding themselves doing and saying things altogether unexpected.&#10;&#10;Attributes:&#10; &#160;&#160;&#160;name (str): Name that party is known by&#10; &#160;&#160;&#160;formed_datetime (datetime): Timestamp of when the party was formed&#10; &#160;&#160;&#160;members (List[Adventurer]): Adventurers that belong to this party&#10; &#160;&#160;&#160;active_quest (Optional[Quest]): Current quest that party is actively tackling">
<polygon fill="none" stroke="black" points="0,-279 0,-300 198,-300 198,-279 0,-279"/>
<text text-anchor="start" x="82.5" y="-286.8" font-family="Times,serif" font-weight="bold" font-size="14.00">Party</text>
<polygon fill="none" stroke="black" points="0,-258 0,-279 100,-279 100,-258 0,-258"/>
<text text-anchor="start" x="34.5" y="-264.8" font-family="Times,serif" font-size="14.00">name</text>
<polygon fill="none" stroke="black" points="100,-258 100,-279 198,-279 198,-258 100,-258"/>
<text text-anchor="start" x="142" y="-264.8" font-family="Times,serif" font-size="14.00">str</text>
<polygon fill="none" stroke="black" points="0,-237 0,-258 100,-258 100,-237 0,-237"/>
<text text-anchor="start" x="3" y="-243.8" font-family="Times,serif" font-size="14.00">formed_datetime</text>
<polygon fill="none" stroke="black" points="100,-237 100,-258 198,-258 198,-237 100,-237"/>
<text text-anchor="start" x="125" y="-243.8" font-family="Times,serif" font-size="14.00">datetime</text>
<polygon fill="none" stroke="black" points="0,-216 0,-237 100,-237 100,-216 0,-216"/>
<text text-anchor="start" x="24" y="-222.8" font-family="Times,serif" font-size="14.00">members</text>
<polygon fill="none" stroke="black" points="100,-216 100,-237 198,-237 198,-216 100,-216"/>
<text text-anchor="start" x="103" y="-222.8" font-family="Times,serif" font-size="14.00">List[Adventurer]</text>
<polygon fill="none" stroke="black" points="0,-195 0,-216 100,-216 100,-195 0,-195"/>
<text text-anchor="start" x="16" y="-201.8" font-family="Times,serif" font-size="14.00">active_quest</text>
<polygon fill="none" stroke="black" points="100,-195 100,-216 198,-216 198,-195 100,-195"/>
<text text-anchor="start" x="105" y="-201.8" font-family="Times,serif" font-size="14.00">Optional[Quest]</text>
</a>
</g>
</g>
<!-- Party&#45;&gt;Adventurer -->
<g id="edge1" class="edge">
<title>Party:e&#45;&gt;Adventurer:w</title>
<path fill="none" stroke="black" d="M198,-226C248.6,-226 249.28,-281.09 287.99,-294.22"/>
<polygon fill="black" stroke="black" points="296.12,-295.47 305.31,-301.45 301.06,-296.24 306,-297 306,-297 306,-297 301.06,-296.24 306.69,-292.55 296.12,-295.47 296.12,-295.47"/>
<ellipse fill="none" stroke="black" cx="292.16" cy="-294.86" rx="4" ry="4"/>
</g>
<!-- Quest -->
<g id="node3" class="node">
<title>Quest</title>
<g id="a_node3"><a xlink:title="erdantic.examples.dataclasses.Quest&#10;&#10;A task to complete, with some monetary reward.&#10;&#10;Attributes:&#10; &#160;&#160;&#160;name (str): Name by which this quest is referred to&#10; &#160;&#160;&#160;giver (QuestGiver): Person who offered the quest&#10; &#160;&#160;&#160;reward_gold (int): Amount of gold to be rewarded for quest completion">
<polygon fill="none" stroke="black" points="347,-124 347,-145 491,-145 491,-124 347,-124"/>
<text text-anchor="start" x="401.5" y="-131.8" font-family="Times,serif" font-weight="bold" font-size="14.00">Quest</text>
<polygon fill="none" stroke="black" points="347,-103 347,-124 422,-124 422,-103 347,-103"/>
<text text-anchor="start" x="369" y="-109.8" font-family="Times,serif" font-size="14.00">name</text>
<polygon fill="none" stroke="black" points="422,-103 422,-124 491,-124 491,-103 422,-103"/>
<text text-anchor="start" x="449.5" y="-109.8" font-family="Times,serif" font-size="14.00">str</text>
<polygon fill="none" stroke="black" points="347,-82 347,-103 422,-103 422,-82 347,-82"/>
<text text-anchor="start" x="370.5" y="-88.8" font-family="Times,serif" font-size="14.00">giver</text>
<polygon fill="none" stroke="black" points="422,-82 422,-103 491,-103 491,-82 422,-82"/>
<text text-anchor="start" x="425" y="-88.8" font-family="Times,serif" font-size="14.00">QuestGiver</text>
<polygon fill="none" stroke="black" points="347,-61 347,-82 422,-82 422,-61 347,-61"/>
<text text-anchor="start" x="350" y="-67.8" font-family="Times,serif" font-size="14.00">reward_gold</text>
<polygon fill="none" stroke="black" points="422,-61 422,-82 491,-82 491,-61 422,-61"/>
<text text-anchor="start" x="449" y="-67.8" font-family="Times,serif" font-size="14.00">int</text>
</a>
</g>
</g>
<!-- Party&#45;&gt;Quest -->
<g id="edge2" class="edge">
<title>Party:e&#45;&gt;Quest:w</title>
<path fill="none" stroke="black" d="M198,-205C264.23,-205 272.22,-147.01 327.99,-136.59"/>
<polyline fill="none" stroke="black" points="346,-135 341.02,-135.44 "/>
<polygon fill="black" stroke="black" points="339.58,-130.55 340.46,-140.51 338.47,-140.69 337.59,-130.72 339.58,-130.55"/>
<polyline fill="none" stroke="black" points="341.02,-135.44 336.04,-135.88 "/>
<ellipse fill="none" stroke="black" cx="332.05" cy="-136.23" rx="4" ry="4"/>
</g>
<!-- QuestGiver -->
<g id="node4" class="node">
<title>QuestGiver</title>
<g id="a_node4"><a xlink:title="erdantic.examples.dataclasses.QuestGiver&#10;&#10;A person who offers a task that needs completing.&#10;&#10;Attributes:&#10; &#160;&#160;&#160;name (str): Name of this quest giver&#10; &#160;&#160;&#160;faction (str): Faction that this quest giver belongs to&#10; &#160;&#160;&#160;location (str): Location this quest giver can be found">
<polygon fill="none" stroke="black" points="640,-81 640,-102 766,-102 766,-81 640,-81"/>
<text text-anchor="start" x="668.5" y="-88.8" font-family="Times,serif" font-weight="bold" font-size="14.00">QuestGiver</text>
<polygon fill="none" stroke="black" points="640,-60 640,-81 690,-81 690,-60 640,-60"/>
<text text-anchor="start" x="649.5" y="-66.8" font-family="Times,serif" font-size="14.00">name</text>
<polygon fill="none" stroke="black" points="690,-60 690,-81 766,-81 766,-60 690,-60"/>
<text text-anchor="start" x="721" y="-66.8" font-family="Times,serif" font-size="14.00">str</text>
<polygon fill="none" stroke="black" points="640,-39 640,-60 690,-60 690,-39 640,-39"/>
<text text-anchor="start" x="646" y="-45.8" font-family="Times,serif" font-size="14.00">faction</text>
<polygon fill="none" stroke="black" points="690,-39 690,-60 766,-60 766,-39 690,-39"/>
<text text-anchor="start" x="693" y="-45.8" font-family="Times,serif" font-size="14.00">Optional[str]</text>
<polygon fill="none" stroke="black" points="640,-18 640,-39 690,-39 690,-18 640,-18"/>
<text text-anchor="start" x="643" y="-24.8" font-family="Times,serif" font-size="14.00">location</text>
<polygon fill="none" stroke="black" points="690,-18 690,-39 766,-39 766,-18 690,-18"/>
<text text-anchor="start" x="721" y="-24.8" font-family="Times,serif" font-size="14.00">str</text>
</a>
</g>
</g>
<!-- Quest&#45;&gt;QuestGiver -->
<g id="edge3" class="edge">
<title>Quest:e&#45;&gt;QuestGiver:w</title>
<path fill="none" stroke="black" d="M492,-92C552.38,-92 571.19,-92 624.75,-92"/>
<polyline fill="none" stroke="black" points="640,-92 635,-92 "/>
<polygon fill="black" stroke="black" points="634,-87 634,-97 632,-97 632,-87 634,-87"/>
<polyline fill="none" stroke="black" points="635,-92 630,-92 "/>
<polygon fill="black" stroke="black" points="629,-87 629,-97 627,-97 627,-87 629,-87"/>
<polyline fill="none" stroke="black" points="630,-92 625,-92 "/>
</g>
</g>
</svg>
