<?xml version="1.0" encoding="UTF-8" standalone="no"?>
<!DOCTYPE svg PUBLIC "-//W3C//DTD SVG 1.1//EN"
 "http://www.w3.org/Graphics/SVG/1.1/DTD/svg11.dtd">
<!-- Generated by graphviz version 2.46.0 (20210118.1747)
 -->
<!-- Title: Entity Relationship Diagram Pages: 1 -->
<svg width="790pt" height="299pt"
 viewBox="0.00 0.00 790.00 298.50" xmlns="http://www.w3.org/2000/svg" xmlns:xlink="http://www.w3.org/1999/xlink">
<g id="graph0" class="graph" transform="scale(1 1) rotate(0) translate(4 294.5)">
<title>Entity Relationship Diagram</title>
<polygon fill="white" stroke="transparent" points="-4,4 -4,-294.5 786,-294.5 786,4 -4,4"/>
<text text-anchor="middle" x="391" y="-6.8" font-family="Times,serif" font-size="9.00" fill="#a8a8a8">Created by erdantic v0.1.0 &lt;https://github.com/drivendataorg/erdantic&gt;</text>
<!-- Adventurer -->
<g id="node1" class="node">
<title>Adventurer</title>
<g id="a_node1"><a xlink:title="A person often late for dinner but with a tale or two to tell.&#10;&#10;Attributes:&#10; &#160;&#160;&#160;name (str): Name of this adventurer&#10; &#160;&#160;&#160;profession (str): Profession of this adventurer&#10; &#160;&#160;&#160;level (int): Level of this adventurer&#10; &#160;&#160;&#160;alignment (int): Alignment of this adventurer">
<polygon fill="none" stroke="black" points="383,-265 383,-286 467,-286 467,-265 383,-265"/>
<text text-anchor="start" x="391" y="-272.8" font-family="Times,serif" font-weight="bold" font-size="14.00">Adventurer</text>
<polygon fill="none" stroke="black" points="383,-244 383,-265 446,-265 446,-244 383,-244"/>
<text text-anchor="start" x="399" y="-250.8" font-family="Times,serif" font-size="14.00">name</text>
<polygon fill="none" stroke="black" points="446,-244 446,-265 467,-265 467,-244 446,-244"/>
<text text-anchor="start" x="449.5" y="-250.8" font-family="Times,serif" font-size="14.00">str</text>
<polygon fill="none" stroke="black" points="383,-223 383,-244 446,-244 446,-223 383,-223"/>
<text text-anchor="start" x="386" y="-229.8" font-family="Times,serif" font-size="14.00">profession</text>
<polygon fill="none" stroke="black" points="446,-223 446,-244 467,-244 467,-223 446,-223"/>
<text text-anchor="start" x="449.5" y="-229.8" font-family="Times,serif" font-size="14.00">str</text>
<polygon fill="none" stroke="black" points="383,-202 383,-223 446,-223 446,-202 383,-202"/>
<text text-anchor="start" x="401" y="-208.8" font-family="Times,serif" font-size="14.00">level</text>
<polygon fill="none" stroke="black" points="446,-202 446,-223 467,-223 467,-202 446,-202"/>
<text text-anchor="start" x="449" y="-208.8" font-family="Times,serif" font-size="14.00">int</text>
<polygon fill="none" stroke="black" points="383,-181 383,-202 446,-202 446,-181 383,-181"/>
<text text-anchor="start" x="394.5" y="-187.8" font-family="Times,serif" font-size="14.00">affinity</text>
<polygon fill="none" stroke="black" points="446,-181 446,-202 467,-202 467,-181 446,-181"/>
<text text-anchor="start" x="449.5" y="-187.8" font-family="Times,serif" font-size="14.00">str</text>
</a>
</g>
</g>
<!-- Party -->
<g id="node2" class="node">
<title>Party</title>
<g id="a_node2"><a xlink:title="A group of adventurers finding themselves doing and saying things altogether unexpected.&#10;&#10;Attributes:&#10; &#160;&#160;&#160;name (str): Name that party is known by&#10; &#160;&#160;&#160;formed_datetime (datetime): Timestamp of when the party was formed&#10; &#160;&#160;&#160;members (List[Adventurer]): Adventurers that belong to this party&#10; &#160;&#160;&#160;active_quest (Optional[Quest]): Current quest that party is actively tackling">
<polygon fill="none" stroke="black" points="0.5,-269 0.5,-290 245.5,-290 245.5,-269 0.5,-269"/>
<text text-anchor="start" x="106.5" y="-276.8" font-family="Times,serif" font-weight="bold" font-size="14.00">Party</text>
<polygon fill="none" stroke="black" points="0.5,-248 0.5,-269 100.5,-269 100.5,-248 0.5,-248"/>
<text text-anchor="start" x="35" y="-254.8" font-family="Times,serif" font-size="14.00">name</text>
<polygon fill="none" stroke="black" points="100.5,-248 100.5,-269 245.5,-269 245.5,-248 100.5,-248"/>
<text text-anchor="start" x="166" y="-254.8" font-family="Times,serif" font-size="14.00">str</text>
<polygon fill="none" stroke="black" points="0.5,-227 0.5,-248 100.5,-248 100.5,-227 0.5,-227"/>
<text text-anchor="start" x="3.5" y="-233.8" font-family="Times,serif" font-size="14.00">formed_datetime</text>
<polygon fill="none" stroke="black" points="100.5,-227 100.5,-248 245.5,-248 245.5,-227 100.5,-227"/>
<text text-anchor="start" x="149" y="-233.8" font-family="Times,serif" font-size="14.00">datetime</text>
<polygon fill="none" stroke="black" points="0.5,-206 0.5,-227 100.5,-227 100.5,-206 0.5,-206"/>
<text text-anchor="start" x="24.5" y="-212.8" font-family="Times,serif" font-size="14.00">members</text>
<polygon fill="none" stroke="black" points="100.5,-206 100.5,-227 245.5,-227 245.5,-206 100.5,-206"/>
<text text-anchor="start" x="127" y="-212.8" font-family="Times,serif" font-size="14.00">List[Adventurer]</text>
<polygon fill="none" stroke="black" points="0.5,-185 0.5,-206 100.5,-206 100.5,-185 0.5,-185"/>
<text text-anchor="start" x="16.5" y="-191.8" font-family="Times,serif" font-size="14.00">active_quest</text>
<polygon fill="none" stroke="black" points="100.5,-185 100.5,-206 245.5,-206 245.5,-185 100.5,-185"/>
<text text-anchor="start" x="103.5" y="-191.8" font-family="Times,serif" font-size="14.00">Union[Quest, NoneType]</text>
</a>
</g>
</g>
<!-- Party&#45;&gt;Adventurer -->
<g id="edge1" class="edge">
<title>Party:e&#45;&gt;Adventurer:w</title>
<path fill="none" stroke="black" d="M245,-216C304.85,-216 314.1,-264.64 363.87,-274.33"/>
<polygon fill="black" stroke="black" points="372.04,-275.08 381.59,-280.48 377.02,-275.54 382,-276 382,-276 382,-276 377.02,-275.54 382.41,-271.52 372.04,-275.08 372.04,-275.08"/>
<ellipse fill="none" stroke="black" cx="368.06" cy="-274.72" rx="4" ry="4"/>
</g>
<!-- Quest -->
<g id="node3" class="node">
<title>Quest</title>
<g id="a_node3"><a xlink:title="A task to complete, with some monetary reward.&#10;&#10;Attributes:&#10; &#160;&#160;&#160;name (str): Name by which this quest is referred to&#10; &#160;&#160;&#160;giver (QuestGiver): Person who offered the quest&#10; &#160;&#160;&#160;reward_gold (int): Amount of gold to be rewarded for quest completion">
<polygon fill="none" stroke="black" points="353,-124 353,-145 497,-145 497,-124 353,-124"/>
<text text-anchor="start" x="407.5" y="-131.8" font-family="Times,serif" font-weight="bold" font-size="14.00">Quest</text>
<polygon fill="none" stroke="black" points="353,-103 353,-124 428,-124 428,-103 353,-103"/>
<text text-anchor="start" x="375" y="-109.8" font-family="Times,serif" font-size="14.00">name</text>
<polygon fill="none" stroke="black" points="428,-103 428,-124 497,-124 497,-103 428,-103"/>
<text text-anchor="start" x="455.5" y="-109.8" font-family="Times,serif" font-size="14.00">str</text>
<polygon fill="none" stroke="black" points="353,-82 353,-103 428,-103 428,-82 353,-82"/>
<text text-anchor="start" x="376.5" y="-88.8" font-family="Times,serif" font-size="14.00">giver</text>
<polygon fill="none" stroke="black" points="428,-82 428,-103 497,-103 497,-82 428,-82"/>
<text text-anchor="start" x="431" y="-88.8" font-family="Times,serif" font-size="14.00">QuestGiver</text>
<polygon fill="none" stroke="black" points="353,-61 353,-82 428,-82 428,-61 353,-61"/>
<text text-anchor="start" x="356" y="-67.8" font-family="Times,serif" font-size="14.00">reward_gold</text>
<polygon fill="none" stroke="black" points="428,-61 428,-82 497,-82 497,-61 428,-61"/>
<text text-anchor="start" x="455" y="-67.8" font-family="Times,serif" font-size="14.00">int</text>
</a>
</g>
</g>
<!-- Party&#45;&gt;Quest -->
<g id="edge2" class="edge">
<title>Party:e&#45;&gt;Quest:w</title>
<path fill="none" stroke="black" d="M245,-195C293.15,-195 297.68,-148.86 335.1,-137.5"/>
<polyline fill="none" stroke="black" points="353,-135 348.05,-135.69 "/>
<polygon fill="black" stroke="black" points="346.37,-130.88 347.75,-140.78 345.77,-141.06 344.39,-131.16 346.37,-130.88"/>
<polyline fill="none" stroke="black" points="348.05,-135.69 343.1,-136.38 "/>
<ellipse fill="none" stroke="black" cx="339.13" cy="-136.94" rx="4" ry="4"/>
</g>
<!-- QuestGiver -->
<g id="node4" class="node">
<title>QuestGiver</title>
<g id="a_node4"><a xlink:title="A person who offers a task that needs completing.&#10;&#10;Attributes:&#10; &#160;&#160;&#160;name (str): Name of this quest giver&#10; &#160;&#160;&#160;faction (str): Faction that this quest giver belongs to&#10; &#160;&#160;&#160;location (str): Location this quest giver can be found">
<polygon fill="none" stroke="black" points="605.5,-81 605.5,-102 782.5,-102 782.5,-81 605.5,-81"/>
<text text-anchor="start" x="659.5" y="-88.8" font-family="Times,serif" font-weight="bold" font-size="14.00">QuestGiver</text>
<polygon fill="none" stroke="black" points="605.5,-60 605.5,-81 655.5,-81 655.5,-60 605.5,-60"/>
<text text-anchor="start" x="615" y="-66.8" font-family="Times,serif" font-size="14.00">name</text>
<polygon fill="none" stroke="black" points="655.5,-60 655.5,-81 782.5,-81 782.5,-60 655.5,-60"/>
<text text-anchor="start" x="712" y="-66.8" font-family="Times,serif" font-size="14.00">str</text>
<polygon fill="none" stroke="black" points="605.5,-39 605.5,-60 655.5,-60 655.5,-39 605.5,-39"/>
<text text-anchor="start" x="611.5" y="-45.8" font-family="Times,serif" font-size="14.00">faction</text>
<polygon fill="none" stroke="black" points="655.5,-39 655.5,-60 782.5,-60 782.5,-39 655.5,-39"/>
<text text-anchor="start" x="658.5" y="-45.8" font-family="Times,serif" font-size="14.00">Union[str, NoneType]</text>
<polygon fill="none" stroke="black" points="605.5,-18 605.5,-39 655.5,-39 655.5,-18 605.5,-18"/>
<text text-anchor="start" x="608.5" y="-24.8" font-family="Times,serif" font-size="14.00">location</text>
<polygon fill="none" stroke="black" points="655.5,-18 655.5,-39 782.5,-39 782.5,-18 655.5,-18"/>
<text text-anchor="start" x="712" y="-24.8" font-family="Times,serif" font-size="14.00">str</text>
</a>
</g>
</g>
<!-- Quest&#45;&gt;QuestGiver -->
<g id="edge3" class="edge">
<title>Quest:e&#45;&gt;QuestGiver:w</title>
<path fill="none" stroke="black" d="M497,-92C539.56,-92 553.82,-92 589.97,-92"/>
<polyline fill="none" stroke="black" points="605,-92 600,-92 "/>
<polygon fill="black" stroke="black" points="599,-87 599,-97 597,-97 597,-87 599,-87"/>
<polyline fill="none" stroke="black" points="600,-92 595,-92 "/>
<polygon fill="black" stroke="black" points="594,-87 594,-97 592,-97 592,-87 594,-87"/>
<polyline fill="none" stroke="black" points="595,-92 590,-92 "/>
</g>
</g>
</svg>
