<?xml version="1.0" encoding="UTF-8" standalone="no"?>
<!DOCTYPE svg PUBLIC "-//W3C//DTD SVG 1.1//EN"
 "http://www.w3.org/Graphics/SVG/1.1/DTD/svg11.dtd">
<!-- Generated by graphviz version 2.46.0 (20210118.1747)
 -->
<!-- Title: Entity Relationship Diagram Pages: 1 -->
<svg width="693pt" height="315pt"
 viewBox="0.00 0.00 693.00 315.00" xmlns="http://www.w3.org/2000/svg" xmlns:xlink="http://www.w3.org/1999/xlink">
<g id="graph0" class="graph" transform="scale(1 1) rotate(0) translate(4 311)">
<title>Entity Relationship Diagram</title>
<polygon fill="white" stroke="transparent" points="-4,4 -4,-311 689,-311 689,4 -4,4"/>
<text text-anchor="middle" x="342.5" y="-6.8" font-family="Times,serif" font-size="9.00" fill="#a8a8a8">Created by erdantic v0.1.0 &lt;https://github.com/drivendataorg/erdantic&gt;</text>
<!-- Adventurer -->
<g id="node1" class="node">
<title>Adventurer</title>
<g id="a_node1"><a xlink:title="erdantic.examples.pydantic.Adventurer&#10;&#10;A person often late for dinner but with a tale or two to tell.&#10;&#10;Attributes:&#10; &#160;&#160;&#160;name (str): Name of this adventurer&#10; &#160;&#160;&#160;profession (str): Profession of this adventurer&#10; &#160;&#160;&#160;level (int): Level of this adventurer&#10; &#160;&#160;&#160;alignment (int): Alignment of this adventurer">
<polygon fill="none" stroke="black" points="276,-286 276,-307 502,-307 502,-286 276,-286"/>
<text text-anchor="start" x="355" y="-293.8" font-family="Times,serif" font-weight="bold" font-size="14.00">Adventurer</text>
<polygon fill="none" stroke="black" points="276,-265 276,-286 357,-286 357,-265 276,-265"/>
<text text-anchor="start" x="301" y="-271.8" font-family="Times,serif" font-size="14.00">name</text>
<polygon fill="none" stroke="black" points="357,-265 357,-286 502,-286 502,-265 357,-265"/>
<text text-anchor="start" x="422.5" y="-271.8" font-family="Times,serif" font-size="14.00">str</text>
<polygon fill="none" stroke="black" points="276,-244 276,-265 357,-265 357,-244 276,-244"/>
<text text-anchor="start" x="288" y="-250.8" font-family="Times,serif" font-size="14.00">profession</text>
<polygon fill="none" stroke="black" points="357,-244 357,-265 502,-265 502,-244 357,-244"/>
<text text-anchor="start" x="422.5" y="-250.8" font-family="Times,serif" font-size="14.00">str</text>
<polygon fill="none" stroke="black" points="276,-223 276,-244 357,-244 357,-223 276,-223"/>
<text text-anchor="start" x="303" y="-229.8" font-family="Times,serif" font-size="14.00">level</text>
<polygon fill="none" stroke="black" points="357,-223 357,-244 502,-244 502,-223 357,-223"/>
<text text-anchor="start" x="422" y="-229.8" font-family="Times,serif" font-size="14.00">int</text>
<polygon fill="none" stroke="black" points="276,-202 276,-223 357,-223 357,-202 276,-202"/>
<text text-anchor="start" x="280.5" y="-208.8" font-family="Times,serif" font-size="14.00">alignment_lc</text>
<polygon fill="none" stroke="black" points="357,-202 357,-223 502,-223 502,-202 357,-202"/>
<text text-anchor="start" x="360" y="-208.8" font-family="Times,serif" font-size="14.00">AlignmentLC(str, Enum)</text>
<polygon fill="none" stroke="black" points="276,-181 276,-202 357,-202 357,-181 276,-181"/>
<text text-anchor="start" x="279" y="-187.8" font-family="Times,serif" font-size="14.00">alignment_ge</text>
<polygon fill="none" stroke="black" points="357,-181 357,-202 502,-202 502,-181 357,-181"/>
<text text-anchor="start" x="360" y="-187.8" font-family="Times,serif" font-size="14.00">AlignmentGE(str, Enum)</text>
</a>
</g>
</g>
<!-- Party -->
<g id="node2" class="node">
<title>Party</title>
<g id="a_node2"><a xlink:title="erdantic.examples.pydantic.Party&#10;&#10;A group of adventurers finding themselves doing and saying things altogether unexpected.&#10;&#10;Attributes:&#10; &#160;&#160;&#160;name (str): Name that party is known by&#10; &#160;&#160;&#160;formed_datetime (datetime): Timestamp of when the party was formed&#10; &#160;&#160;&#160;members (List[Adventurer]): Adventurers that belong to this party&#10; &#160;&#160;&#160;active_quest (Optional[Quest]): Current quest that party is actively tackling">
<polygon fill="none" stroke="black" points="0,-279 0,-300 168,-300 168,-279 0,-279"/>
<text text-anchor="start" x="67.5" y="-286.8" font-family="Times,serif" font-weight="bold" font-size="14.00">Party</text>
<polygon fill="none" stroke="black" points="0,-258 0,-279 100,-279 100,-258 0,-258"/>
<text text-anchor="start" x="34.5" y="-264.8" font-family="Times,serif" font-size="14.00">name</text>
<polygon fill="none" stroke="black" points="100,-258 100,-279 168,-279 168,-258 100,-258"/>
<text text-anchor="start" x="127" y="-264.8" font-family="Times,serif" font-size="14.00">str</text>
<polygon fill="none" stroke="black" points="0,-237 0,-258 100,-258 100,-237 0,-237"/>
<text text-anchor="start" x="3" y="-243.8" font-family="Times,serif" font-size="14.00">formed_datetime</text>
<polygon fill="none" stroke="black" points="100,-237 100,-258 168,-258 168,-237 100,-237"/>
<text text-anchor="start" x="110" y="-243.8" font-family="Times,serif" font-size="14.00">datetime</text>
<polygon fill="none" stroke="black" points="0,-216 0,-237 100,-237 100,-216 0,-216"/>
<text text-anchor="start" x="24" y="-222.8" font-family="Times,serif" font-size="14.00">members</text>
<polygon fill="none" stroke="black" points="100,-216 100,-237 168,-237 168,-216 100,-216"/>
<text text-anchor="start" x="103" y="-222.8" font-family="Times,serif" font-size="14.00">Adventurer</text>
<polygon fill="none" stroke="black" points="0,-195 0,-216 100,-216 100,-195 0,-195"/>
<text text-anchor="start" x="16" y="-201.8" font-family="Times,serif" font-size="14.00">active_quest</text>
<polygon fill="none" stroke="black" points="100,-195 100,-216 168,-216 168,-195 100,-195"/>
<text text-anchor="start" x="118" y="-201.8" font-family="Times,serif" font-size="14.00">Quest</text>
</a>
</g>
</g>
<!-- Party&#45;&gt;Adventurer -->
<g id="edge1" class="edge">
<title>Party:e&#45;&gt;Adventurer:w</title>
<path fill="none" stroke="black" d="M168,-226C218.6,-226 219.28,-281.09 257.99,-294.22"/>
<polygon fill="black" stroke="black" points="266.12,-295.47 275.31,-301.45 271.06,-296.24 276,-297 276,-297 276,-297 271.06,-296.24 276.69,-292.55 266.12,-295.47 266.12,-295.47"/>
<ellipse fill="none" stroke="black" cx="262.16" cy="-294.86" rx="4" ry="4"/>
</g>
<!-- Quest -->
<g id="node3" class="node">
<title>Quest</title>
<g id="a_node3"><a xlink:title="erdantic.examples.pydantic.Quest&#10;&#10;A task to complete, with some monetary reward.&#10;&#10;Attributes:&#10; &#160;&#160;&#160;name (str): Name by which this quest is referred to&#10; &#160;&#160;&#160;giver (QuestGiver): Person who offered the quest&#10; &#160;&#160;&#160;reward_gold (int): Amount of gold to be rewarded for quest completion">
<polygon fill="none" stroke="black" points="317,-124 317,-145 461,-145 461,-124 317,-124"/>
<text text-anchor="start" x="371.5" y="-131.8" font-family="Times,serif" font-weight="bold" font-size="14.00">Quest</text>
<polygon fill="none" stroke="black" points="317,-103 317,-124 392,-124 392,-103 317,-103"/>
<text text-anchor="start" x="339" y="-109.8" font-family="Times,serif" font-size="14.00">name</text>
<polygon fill="none" stroke="black" points="392,-103 392,-124 461,-124 461,-103 392,-103"/>
<text text-anchor="start" x="419.5" y="-109.8" font-family="Times,serif" font-size="14.00">str</text>
<polygon fill="none" stroke="black" points="317,-82 317,-103 392,-103 392,-82 317,-82"/>
<text text-anchor="start" x="340.5" y="-88.8" font-family="Times,serif" font-size="14.00">giver</text>
<polygon fill="none" stroke="black" points="392,-82 392,-103 461,-103 461,-82 392,-82"/>
<text text-anchor="start" x="395" y="-88.8" font-family="Times,serif" font-size="14.00">QuestGiver</text>
<polygon fill="none" stroke="black" points="317,-61 317,-82 392,-82 392,-61 317,-61"/>
<text text-anchor="start" x="320" y="-67.8" font-family="Times,serif" font-size="14.00">reward_gold</text>
<polygon fill="none" stroke="black" points="392,-61 392,-82 461,-82 461,-61 392,-61"/>
<text text-anchor="start" x="419" y="-67.8" font-family="Times,serif" font-size="14.00">int</text>
</a>
</g>
</g>
<!-- Party&#45;&gt;Quest -->
<g id="edge2" class="edge">
<title>Party:e&#45;&gt;Quest:w</title>
<path fill="none" stroke="black" d="M168,-205C234.23,-205 242.22,-147.01 297.99,-136.59"/>
<polyline fill="none" stroke="black" points="316,-135 311.02,-135.44 "/>
<polygon fill="black" stroke="black" points="309.58,-130.55 310.46,-140.51 308.47,-140.69 307.59,-130.72 309.58,-130.55"/>
<polyline fill="none" stroke="black" points="311.02,-135.44 306.04,-135.88 "/>
<ellipse fill="none" stroke="black" cx="302.05" cy="-136.23" rx="4" ry="4"/>
</g>
<!-- QuestGiver -->
<g id="node4" class="node">
<title>QuestGiver</title>
<g id="a_node4"><a xlink:title="erdantic.examples.pydantic.QuestGiver&#10;&#10;A person who offers a task that needs completing.&#10;&#10;Attributes:&#10; &#160;&#160;&#160;name (str): Name of this quest giver&#10; &#160;&#160;&#160;faction (str): Faction that this quest giver belongs to&#10; &#160;&#160;&#160;location (str): Location this quest giver can be found">
<polygon fill="none" stroke="black" points="610.5,-81 610.5,-102 685.5,-102 685.5,-81 610.5,-81"/>
<text text-anchor="start" x="613.5" y="-88.8" font-family="Times,serif" font-weight="bold" font-size="14.00">QuestGiver</text>
<polygon fill="none" stroke="black" points="610.5,-60 610.5,-81 662.5,-81 662.5,-60 610.5,-60"/>
<text text-anchor="start" x="621" y="-66.8" font-family="Times,serif" font-size="14.00">name</text>
<polygon fill="none" stroke="black" points="662.5,-60 662.5,-81 685.5,-81 685.5,-60 662.5,-60"/>
<text text-anchor="start" x="667" y="-66.8" font-family="Times,serif" font-size="14.00">str</text>
<polygon fill="none" stroke="black" points="610.5,-39 610.5,-60 662.5,-60 662.5,-39 610.5,-39"/>
<text text-anchor="start" x="617.5" y="-45.8" font-family="Times,serif" font-size="14.00">faction</text>
<polygon fill="none" stroke="black" points="662.5,-39 662.5,-60 685.5,-60 685.5,-39 662.5,-39"/>
<text text-anchor="start" x="667" y="-45.8" font-family="Times,serif" font-size="14.00">str</text>
<polygon fill="none" stroke="black" points="610.5,-18 610.5,-39 662.5,-39 662.5,-18 610.5,-18"/>
<text text-anchor="start" x="614.5" y="-24.8" font-family="Times,serif" font-size="14.00">location</text>
<polygon fill="none" stroke="black" points="662.5,-18 662.5,-39 685.5,-39 685.5,-18 662.5,-18"/>
<text text-anchor="start" x="667" y="-24.8" font-family="Times,serif" font-size="14.00">str</text>
</a>
</g>
</g>
<!-- Quest&#45;&gt;QuestGiver -->
<g id="edge3" class="edge">
<title>Quest:e&#45;&gt;QuestGiver:w</title>
<path fill="none" stroke="black" d="M462,-92C522.38,-92 541.19,-92 594.75,-92"/>
<polyline fill="none" stroke="black" points="610,-92 605,-92 "/>
<polygon fill="black" stroke="black" points="604,-87 604,-97 602,-97 602,-87 604,-87"/>
<polyline fill="none" stroke="black" points="605,-92 600,-92 "/>
<polygon fill="black" stroke="black" points="599,-87 599,-97 597,-97 597,-87 599,-87"/>
<polyline fill="none" stroke="black" points="600,-92 595,-92 "/>
</g>
</g>
</svg>
