<?xml version="1.0" encoding="UTF-8" standalone="no"?>
<!DOCTYPE svg PUBLIC "-//W3C//DTD SVG 1.1//EN"
 "http://www.w3.org/Graphics/SVG/1.1/DTD/svg11.dtd">
<!-- Generated by graphviz version 2.46.0 (20210118.1747)
 -->
<!-- Title: Entity Relationship Diagram Pages: 1 -->
<svg width="738pt" height="299pt"
 viewBox="0.00 0.00 738.00 298.50" xmlns="http://www.w3.org/2000/svg" xmlns:xlink="http://www.w3.org/1999/xlink">
<g id="graph0" class="graph" transform="scale(1 1) rotate(0) translate(4 294.5)">
<title>Entity Relationship Diagram</title>
<polygon fill="white" stroke="transparent" points="-4,4 -4,-294.5 734,-294.5 734,4 -4,4"/>
<text text-anchor="middle" x="365" y="-6.8" font-family="Times,serif" font-size="9.00" fill="#a8a8a8">Created by erdantic v0.1.2 &lt;https://github.com/drivendataorg/erdantic&gt;</text>
<!-- erdantic.examples.pydantic.Adventurer -->
<g id="node1" class="node">
<title>erdantic.examples.pydantic.Adventurer</title>
<g id="a_node1"><a xlink:title="erdantic.examples.pydantic.Adventurer&#10;&#10;A person often late for dinner but with a tale or two to tell.&#10;&#10;Attributes:&#10; &#160;&#160;&#160;name (str): Name of this adventurer&#10; &#160;&#160;&#160;profession (str): Profession of this adventurer&#10; &#160;&#160;&#160;level (int): Level of this adventurer&#10; &#160;&#160;&#160;alignment (Alignment): Alignment of this adventurer">
<polygon fill="none" stroke="black" points="306,-265 306,-286 496,-286 496,-265 306,-265"/>
<text text-anchor="start" x="367" y="-272.8" font-family="Times,serif" font-weight="bold" font-size="14.00">Adventurer</text>
<polygon fill="none" stroke="black" points="306,-244 306,-265 369,-265 369,-244 306,-244"/>
<text text-anchor="start" x="322" y="-250.8" font-family="Times,serif" font-size="14.00">name</text>
<polygon fill="none" stroke="black" points="369,-244 369,-265 496,-265 496,-244 369,-244"/>
<text text-anchor="start" x="425.5" y="-250.8" font-family="Times,serif" font-size="14.00">str</text>
<polygon fill="none" stroke="black" points="306,-223 306,-244 369,-244 369,-223 306,-223"/>
<text text-anchor="start" x="309" y="-229.8" font-family="Times,serif" font-size="14.00">profession</text>
<polygon fill="none" stroke="black" points="369,-223 369,-244 496,-244 496,-223 369,-223"/>
<text text-anchor="start" x="425.5" y="-229.8" font-family="Times,serif" font-size="14.00">str</text>
<polygon fill="none" stroke="black" points="306,-202 306,-223 369,-223 369,-202 306,-202"/>
<text text-anchor="start" x="324" y="-208.8" font-family="Times,serif" font-size="14.00">level</text>
<polygon fill="none" stroke="black" points="369,-202 369,-223 496,-223 496,-202 369,-202"/>
<text text-anchor="start" x="425" y="-208.8" font-family="Times,serif" font-size="14.00">int</text>
<polygon fill="none" stroke="black" points="306,-181 306,-202 369,-202 369,-181 306,-181"/>
<text text-anchor="start" x="310" y="-187.8" font-family="Times,serif" font-size="14.00">alignment</text>
<polygon fill="none" stroke="black" points="369,-181 369,-202 496,-202 496,-181 369,-181"/>
<text text-anchor="start" x="372" y="-187.8" font-family="Times,serif" font-size="14.00">Alignment(str, Enum)</text>
</a>
</g>
</g>
<!-- erdantic.examples.pydantic.Party -->
<g id="node2" class="node">
<title>erdantic.examples.pydantic.Party</title>
<g id="a_node2"><a xlink:title="erdantic.examples.pydantic.Party&#10;&#10;A group of adventurers finding themselves doing and saying things altogether unexpected.&#10;&#10;Attributes:&#10; &#160;&#160;&#160;name (str): Name that party is known by&#10; &#160;&#160;&#160;formed_datetime (datetime): Timestamp of when the party was formed&#10; &#160;&#160;&#160;members (List[Adventurer]): Adventurers that belong to this party&#10; &#160;&#160;&#160;active_quest (Optional[Quest]): Current quest that party is actively tackling">
<polygon fill="none" stroke="black" points="0,-269 0,-290 198,-290 198,-269 0,-269"/>
<text text-anchor="start" x="82.5" y="-276.8" font-family="Times,serif" font-weight="bold" font-size="14.00">Party</text>
<polygon fill="none" stroke="black" points="0,-248 0,-269 100,-269 100,-248 0,-248"/>
<text text-anchor="start" x="34.5" y="-254.8" font-family="Times,serif" font-size="14.00">name</text>
<polygon fill="none" stroke="black" points="100,-248 100,-269 198,-269 198,-248 100,-248"/>
<text text-anchor="start" x="142" y="-254.8" font-family="Times,serif" font-size="14.00">str</text>
<polygon fill="none" stroke="black" points="0,-227 0,-248 100,-248 100,-227 0,-227"/>
<text text-anchor="start" x="3" y="-233.8" font-family="Times,serif" font-size="14.00">formed_datetime</text>
<polygon fill="none" stroke="black" points="100,-227 100,-248 198,-248 198,-227 100,-227"/>
<text text-anchor="start" x="125" y="-233.8" font-family="Times,serif" font-size="14.00">datetime</text>
<polygon fill="none" stroke="black" points="0,-206 0,-227 100,-227 100,-206 0,-206"/>
<text text-anchor="start" x="24" y="-212.8" font-family="Times,serif" font-size="14.00">members</text>
<polygon fill="none" stroke="black" points="100,-206 100,-227 198,-227 198,-206 100,-206"/>
<text text-anchor="start" x="103" y="-212.8" font-family="Times,serif" font-size="14.00">List[Adventurer]</text>
<polygon fill="none" stroke="black" points="0,-185 0,-206 100,-206 100,-185 0,-185"/>
<text text-anchor="start" x="16" y="-191.8" font-family="Times,serif" font-size="14.00">active_quest</text>
<polygon fill="none" stroke="black" points="100,-185 100,-206 198,-206 198,-185 100,-185"/>
<text text-anchor="start" x="105" y="-191.8" font-family="Times,serif" font-size="14.00">Optional[Quest]</text>
</a>
</g>
</g>
<!-- erdantic.examples.pydantic.Party&#45;&gt;erdantic.examples.pydantic.Adventurer -->
<g id="edge1" class="edge">
<title>erdantic.examples.pydantic.Party:e&#45;&gt;erdantic.examples.pydantic.Adventurer:w</title>
<path fill="none" stroke="black" d="M198,-216C246.15,-216 250.68,-262.14 288.1,-273.5"/>
<polygon fill="black" stroke="black" points="296.1,-274.62 305.38,-280.46 301.05,-275.31 306,-276 306,-276 306,-276 301.05,-275.31 306.62,-271.54 296.1,-274.62 296.1,-274.62"/>
<ellipse fill="none" stroke="black" cx="292.13" cy="-274.06" rx="4" ry="4"/>
</g>
<!-- erdantic.examples.pydantic.Quest -->
<g id="node3" class="node">
<title>erdantic.examples.pydantic.Quest</title>
<g id="a_node3"><a xlink:title="erdantic.examples.pydantic.Quest&#10;&#10;A task to complete, with some monetary reward.&#10;&#10;Attributes:&#10; &#160;&#160;&#160;name (str): Name by which this quest is referred to&#10; &#160;&#160;&#160;giver (QuestGiver): Person who offered the quest&#10; &#160;&#160;&#160;reward_gold (int): Amount of gold to be rewarded for quest completion">
<polygon fill="none" stroke="black" points="329,-124 329,-145 473,-145 473,-124 329,-124"/>
<text text-anchor="start" x="383.5" y="-131.8" font-family="Times,serif" font-weight="bold" font-size="14.00">Quest</text>
<polygon fill="none" stroke="black" points="329,-103 329,-124 404,-124 404,-103 329,-103"/>
<text text-anchor="start" x="351" y="-109.8" font-family="Times,serif" font-size="14.00">name</text>
<polygon fill="none" stroke="black" points="404,-103 404,-124 473,-124 473,-103 404,-103"/>
<text text-anchor="start" x="431.5" y="-109.8" font-family="Times,serif" font-size="14.00">str</text>
<polygon fill="none" stroke="black" points="329,-82 329,-103 404,-103 404,-82 329,-82"/>
<text text-anchor="start" x="352.5" y="-88.8" font-family="Times,serif" font-size="14.00">giver</text>
<polygon fill="none" stroke="black" points="404,-82 404,-103 473,-103 473,-82 404,-82"/>
<text text-anchor="start" x="407" y="-88.8" font-family="Times,serif" font-size="14.00">QuestGiver</text>
<polygon fill="none" stroke="black" points="329,-61 329,-82 404,-82 404,-61 329,-61"/>
<text text-anchor="start" x="332" y="-67.8" font-family="Times,serif" font-size="14.00">reward_gold</text>
<polygon fill="none" stroke="black" points="404,-61 404,-82 473,-82 473,-61 404,-61"/>
<text text-anchor="start" x="431" y="-67.8" font-family="Times,serif" font-size="14.00">int</text>
</a>
</g>
</g>
<!-- erdantic.examples.pydantic.Party&#45;&gt;erdantic.examples.pydantic.Quest -->
<g id="edge2" class="edge">
<title>erdantic.examples.pydantic.Party:e&#45;&gt;erdantic.examples.pydantic.Quest:w</title>
<path fill="none" stroke="black" d="M198,-195C255.05,-195 263.15,-146.78 310.06,-136.8"/>
<polyline fill="none" stroke="black" points="328,-135 323.02,-135.5 "/>
<polygon fill="black" stroke="black" points="321.53,-130.62 322.53,-140.57 320.54,-140.77 319.54,-130.82 321.53,-130.62"/>
<polyline fill="none" stroke="black" points="323.02,-135.5 318.05,-136 "/>
<ellipse fill="none" stroke="black" cx="314.07" cy="-136.39" rx="4" ry="4"/>
</g>
<!-- erdantic.examples.pydantic.QuestGiver -->
<g id="node4" class="node">
<title>erdantic.examples.pydantic.QuestGiver</title>
<g id="a_node4"><a xlink:title="erdantic.examples.pydantic.QuestGiver&#10;&#10;A person who offers a task that needs completing.&#10;&#10;Attributes:&#10; &#160;&#160;&#160;name (str): Name of this quest giver&#10; &#160;&#160;&#160;faction (str): Faction that this quest giver belongs to&#10; &#160;&#160;&#160;location (str): Location this quest giver can be found">
<polygon fill="none" stroke="black" points="604,-81 604,-102 730,-102 730,-81 604,-81"/>
<text text-anchor="start" x="632.5" y="-88.8" font-family="Times,serif" font-weight="bold" font-size="14.00">QuestGiver</text>
<polygon fill="none" stroke="black" points="604,-60 604,-81 654,-81 654,-60 604,-60"/>
<text text-anchor="start" x="613.5" y="-66.8" font-family="Times,serif" font-size="14.00">name</text>
<polygon fill="none" stroke="black" points="654,-60 654,-81 730,-81 730,-60 654,-60"/>
<text text-anchor="start" x="685" y="-66.8" font-family="Times,serif" font-size="14.00">str</text>
<polygon fill="none" stroke="black" points="604,-39 604,-60 654,-60 654,-39 604,-39"/>
<text text-anchor="start" x="610" y="-45.8" font-family="Times,serif" font-size="14.00">faction</text>
<polygon fill="none" stroke="black" points="654,-39 654,-60 730,-60 730,-39 654,-39"/>
<text text-anchor="start" x="657" y="-45.8" font-family="Times,serif" font-size="14.00">Optional[str]</text>
<polygon fill="none" stroke="black" points="604,-18 604,-39 654,-39 654,-18 604,-18"/>
<text text-anchor="start" x="607" y="-24.8" font-family="Times,serif" font-size="14.00">location</text>
<polygon fill="none" stroke="black" points="654,-18 654,-39 730,-39 730,-18 654,-18"/>
<text text-anchor="start" x="685" y="-24.8" font-family="Times,serif" font-size="14.00">str</text>
</a>
</g>
</g>
<!-- erdantic.examples.pydantic.Quest&#45;&gt;erdantic.examples.pydantic.QuestGiver -->
<g id="edge3" class="edge">
<title>erdantic.examples.pydantic.Quest:e&#45;&gt;erdantic.examples.pydantic.QuestGiver:w</title>
<path fill="none" stroke="black" d="M474,-92C526.36,-92 543.13,-92 588.82,-92"/>
<polyline fill="none" stroke="black" points="604,-92 599,-92 "/>
<polygon fill="black" stroke="black" points="598,-87 598,-97 596,-97 596,-87 598,-87"/>
<polyline fill="none" stroke="black" points="599,-92 594,-92 "/>
<polygon fill="black" stroke="black" points="593,-87 593,-97 591,-97 591,-87 593,-87"/>
<polyline fill="none" stroke="black" points="594,-92 589,-92 "/>
</g>
</g>
</svg>
