<?xml version="1.0" encoding="UTF-8" standalone="no"?>
<!DOCTYPE svg PUBLIC "-//W3C//DTD SVG 1.1//EN"
 "http://www.w3.org/Graphics/SVG/1.1/DTD/svg11.dtd">
<!-- Generated by graphviz version 2.46.0 (20210118.1747)
 -->
<!-- Title: Entity Relationship Diagram Pages: 1 -->
<svg width="657pt" height="299pt"
 viewBox="0.00 0.00 657.00 298.50" xmlns="http://www.w3.org/2000/svg" xmlns:xlink="http://www.w3.org/1999/xlink">
<g id="graph0" class="graph" transform="scale(1 1) rotate(0) translate(4 294.5)">
<title>Entity Relationship Diagram</title>
<polygon fill="white" stroke="transparent" points="-4,4 -4,-294.5 653,-294.5 653,4 -4,4"/>
<text text-anchor="middle" x="324.5" y="-6.8" font-family="Times,serif" font-size="9.00" fill="#a8a8a8">Created by erdantic v0.1.0 &lt;https://github.com/drivendataorg/erdantic&gt;</text>
<!-- Adventurer -->
<g id="node1" class="node">
<title>Adventurer</title>
<g id="a_node1"><a xlink:title="erdantic.examples.pydantic.Adventurer&#10;&#10;A person often late for dinner but with a tale or two to tell.&#10;&#10;Attributes:&#10; &#160;&#160;&#160;name (str): Name of this adventurer&#10; &#160;&#160;&#160;profession (str): Profession of this adventurer&#10; &#160;&#160;&#160;level (int): Level of this adventurer&#10; &#160;&#160;&#160;alignment (Alignment): Alignment of this adventurer">
<polygon fill="none" stroke="black" points="276,-265 276,-286 466,-286 466,-265 276,-265"/>
<text text-anchor="start" x="337" y="-272.8" font-family="Times,serif" font-weight="bold" font-size="14.00">Adventurer</text>
<polygon fill="none" stroke="black" points="276,-244 276,-265 339,-265 339,-244 276,-244"/>
<text text-anchor="start" x="292" y="-250.8" font-family="Times,serif" font-size="14.00">name</text>
<polygon fill="none" stroke="black" points="339,-244 339,-265 466,-265 466,-244 339,-244"/>
<text text-anchor="start" x="395.5" y="-250.8" font-family="Times,serif" font-size="14.00">str</text>
<polygon fill="none" stroke="black" points="276,-223 276,-244 339,-244 339,-223 276,-223"/>
<text text-anchor="start" x="279" y="-229.8" font-family="Times,serif" font-size="14.00">profession</text>
<polygon fill="none" stroke="black" points="339,-223 339,-244 466,-244 466,-223 339,-223"/>
<text text-anchor="start" x="395.5" y="-229.8" font-family="Times,serif" font-size="14.00">str</text>
<polygon fill="none" stroke="black" points="276,-202 276,-223 339,-223 339,-202 276,-202"/>
<text text-anchor="start" x="294" y="-208.8" font-family="Times,serif" font-size="14.00">level</text>
<polygon fill="none" stroke="black" points="339,-202 339,-223 466,-223 466,-202 339,-202"/>
<text text-anchor="start" x="395" y="-208.8" font-family="Times,serif" font-size="14.00">int</text>
<polygon fill="none" stroke="black" points="276,-181 276,-202 339,-202 339,-181 276,-181"/>
<text text-anchor="start" x="280" y="-187.8" font-family="Times,serif" font-size="14.00">alignment</text>
<polygon fill="none" stroke="black" points="339,-181 339,-202 466,-202 466,-181 339,-181"/>
<text text-anchor="start" x="342" y="-187.8" font-family="Times,serif" font-size="14.00">Alignment(str, Enum)</text>
</a>
</g>
</g>
<!-- Party -->
<g id="node2" class="node">
<title>Party</title>
<g id="a_node2"><a xlink:title="erdantic.examples.pydantic.Party&#10;&#10;A group of adventurers finding themselves doing and saying things altogether unexpected.&#10;&#10;Attributes:&#10; &#160;&#160;&#160;name (str): Name that party is known by&#10; &#160;&#160;&#160;formed_datetime (datetime): Timestamp of when the party was formed&#10; &#160;&#160;&#160;members (List[Adventurer]): Adventurers that belong to this party&#10; &#160;&#160;&#160;active_quest (Optional[Quest]): Current quest that party is actively tackling">
<polygon fill="none" stroke="black" points="0,-269 0,-290 168,-290 168,-269 0,-269"/>
<text text-anchor="start" x="67.5" y="-276.8" font-family="Times,serif" font-weight="bold" font-size="14.00">Party</text>
<polygon fill="none" stroke="black" points="0,-248 0,-269 100,-269 100,-248 0,-248"/>
<text text-anchor="start" x="34.5" y="-254.8" font-family="Times,serif" font-size="14.00">name</text>
<polygon fill="none" stroke="black" points="100,-248 100,-269 168,-269 168,-248 100,-248"/>
<text text-anchor="start" x="127" y="-254.8" font-family="Times,serif" font-size="14.00">str</text>
<polygon fill="none" stroke="black" points="0,-227 0,-248 100,-248 100,-227 0,-227"/>
<text text-anchor="start" x="3" y="-233.8" font-family="Times,serif" font-size="14.00">formed_datetime</text>
<polygon fill="none" stroke="black" points="100,-227 100,-248 168,-248 168,-227 100,-227"/>
<text text-anchor="start" x="110" y="-233.8" font-family="Times,serif" font-size="14.00">datetime</text>
<polygon fill="none" stroke="black" points="0,-206 0,-227 100,-227 100,-206 0,-206"/>
<text text-anchor="start" x="24" y="-212.8" font-family="Times,serif" font-size="14.00">members</text>
<polygon fill="none" stroke="black" points="100,-206 100,-227 168,-227 168,-206 100,-206"/>
<text text-anchor="start" x="103" y="-212.8" font-family="Times,serif" font-size="14.00">Adventurer</text>
<polygon fill="none" stroke="black" points="0,-185 0,-206 100,-206 100,-185 0,-185"/>
<text text-anchor="start" x="16" y="-191.8" font-family="Times,serif" font-size="14.00">active_quest</text>
<polygon fill="none" stroke="black" points="100,-185 100,-206 168,-206 168,-185 100,-185"/>
<text text-anchor="start" x="118" y="-191.8" font-family="Times,serif" font-size="14.00">Quest</text>
</a>
</g>
</g>
<!-- Party&#45;&gt;Adventurer -->
<g id="edge1" class="edge">
<title>Party:e&#45;&gt;Adventurer:w</title>
<path fill="none" stroke="black" d="M168,-216C216.15,-216 220.68,-262.14 258.1,-273.5"/>
<polygon fill="black" stroke="black" points="266.1,-274.62 275.38,-280.46 271.05,-275.31 276,-276 276,-276 276,-276 271.05,-275.31 276.62,-271.54 266.1,-274.62 266.1,-274.62"/>
<ellipse fill="none" stroke="black" cx="262.13" cy="-274.06" rx="4" ry="4"/>
</g>
<!-- Quest -->
<g id="node3" class="node">
<title>Quest</title>
<g id="a_node3"><a xlink:title="erdantic.examples.pydantic.Quest&#10;&#10;A task to complete, with some monetary reward.&#10;&#10;Attributes:&#10; &#160;&#160;&#160;name (str): Name by which this quest is referred to&#10; &#160;&#160;&#160;giver (QuestGiver): Person who offered the quest&#10; &#160;&#160;&#160;reward_gold (int): Amount of gold to be rewarded for quest completion">
<polygon fill="none" stroke="black" points="299,-124 299,-145 443,-145 443,-124 299,-124"/>
<text text-anchor="start" x="353.5" y="-131.8" font-family="Times,serif" font-weight="bold" font-size="14.00">Quest</text>
<polygon fill="none" stroke="black" points="299,-103 299,-124 374,-124 374,-103 299,-103"/>
<text text-anchor="start" x="321" y="-109.8" font-family="Times,serif" font-size="14.00">name</text>
<polygon fill="none" stroke="black" points="374,-103 374,-124 443,-124 443,-103 374,-103"/>
<text text-anchor="start" x="401.5" y="-109.8" font-family="Times,serif" font-size="14.00">str</text>
<polygon fill="none" stroke="black" points="299,-82 299,-103 374,-103 374,-82 299,-82"/>
<text text-anchor="start" x="322.5" y="-88.8" font-family="Times,serif" font-size="14.00">giver</text>
<polygon fill="none" stroke="black" points="374,-82 374,-103 443,-103 443,-82 374,-82"/>
<text text-anchor="start" x="377" y="-88.8" font-family="Times,serif" font-size="14.00">QuestGiver</text>
<polygon fill="none" stroke="black" points="299,-61 299,-82 374,-82 374,-61 299,-61"/>
<text text-anchor="start" x="302" y="-67.8" font-family="Times,serif" font-size="14.00">reward_gold</text>
<polygon fill="none" stroke="black" points="374,-61 374,-82 443,-82 443,-61 374,-61"/>
<text text-anchor="start" x="401" y="-67.8" font-family="Times,serif" font-size="14.00">int</text>
</a>
</g>
</g>
<!-- Party&#45;&gt;Quest -->
<g id="edge2" class="edge">
<title>Party:e&#45;&gt;Quest:w</title>
<path fill="none" stroke="black" d="M168,-195C225.05,-195 233.15,-146.78 280.06,-136.8"/>
<polyline fill="none" stroke="black" points="298,-135 293.02,-135.5 "/>
<polygon fill="black" stroke="black" points="291.53,-130.62 292.53,-140.57 290.54,-140.77 289.54,-130.82 291.53,-130.62"/>
<polyline fill="none" stroke="black" points="293.02,-135.5 288.05,-136 "/>
<ellipse fill="none" stroke="black" cx="284.07" cy="-136.39" rx="4" ry="4"/>
</g>
<!-- QuestGiver -->
<g id="node4" class="node">
<title>QuestGiver</title>
<g id="a_node4"><a xlink:title="erdantic.examples.pydantic.QuestGiver&#10;&#10;A person who offers a task that needs completing.&#10;&#10;Attributes:&#10; &#160;&#160;&#160;name (str): Name of this quest giver&#10; &#160;&#160;&#160;faction (str): Faction that this quest giver belongs to&#10; &#160;&#160;&#160;location (str): Location this quest giver can be found">
<polygon fill="none" stroke="black" points="574.5,-81 574.5,-102 649.5,-102 649.5,-81 574.5,-81"/>
<text text-anchor="start" x="577.5" y="-88.8" font-family="Times,serif" font-weight="bold" font-size="14.00">QuestGiver</text>
<polygon fill="none" stroke="black" points="574.5,-60 574.5,-81 626.5,-81 626.5,-60 574.5,-60"/>
<text text-anchor="start" x="585" y="-66.8" font-family="Times,serif" font-size="14.00">name</text>
<polygon fill="none" stroke="black" points="626.5,-60 626.5,-81 649.5,-81 649.5,-60 626.5,-60"/>
<text text-anchor="start" x="631" y="-66.8" font-family="Times,serif" font-size="14.00">str</text>
<polygon fill="none" stroke="black" points="574.5,-39 574.5,-60 626.5,-60 626.5,-39 574.5,-39"/>
<text text-anchor="start" x="581.5" y="-45.8" font-family="Times,serif" font-size="14.00">faction</text>
<polygon fill="none" stroke="black" points="626.5,-39 626.5,-60 649.5,-60 649.5,-39 626.5,-39"/>
<text text-anchor="start" x="631" y="-45.8" font-family="Times,serif" font-size="14.00">str</text>
<polygon fill="none" stroke="black" points="574.5,-18 574.5,-39 626.5,-39 626.5,-18 574.5,-18"/>
<text text-anchor="start" x="578.5" y="-24.8" font-family="Times,serif" font-size="14.00">location</text>
<polygon fill="none" stroke="black" points="626.5,-18 626.5,-39 649.5,-39 649.5,-18 626.5,-18"/>
<text text-anchor="start" x="631" y="-24.8" font-family="Times,serif" font-size="14.00">str</text>
</a>
</g>
</g>
<!-- Quest&#45;&gt;QuestGiver -->
<g id="edge3" class="edge">
<title>Quest:e&#45;&gt;QuestGiver:w</title>
<path fill="none" stroke="black" d="M444,-92C496.36,-92 513.13,-92 558.82,-92"/>
<polyline fill="none" stroke="black" points="574,-92 569,-92 "/>
<polygon fill="black" stroke="black" points="568,-87 568,-97 566,-97 566,-87 568,-87"/>
<polyline fill="none" stroke="black" points="569,-92 564,-92 "/>
<polygon fill="black" stroke="black" points="563,-87 563,-97 561,-97 561,-87 563,-87"/>
<polyline fill="none" stroke="black" points="564,-92 559,-92 "/>
</g>
</g>
</svg>
