<?xml version="1.0" encoding="UTF-8" standalone="no"?>
<!DOCTYPE svg PUBLIC "-//W3C//DTD SVG 1.1//EN"
 "http://www.w3.org/Graphics/SVG/1.1/DTD/svg11.dtd">
<!-- Generated by graphviz version 2.46.0 (20210118.1747)
 -->
<!-- Title: Entity Relationship Diagram Pages: 1 -->
<svg width="692pt" height="299pt"
 viewBox="0.00 0.00 692.00 298.50" xmlns="http://www.w3.org/2000/svg" xmlns:xlink="http://www.w3.org/1999/xlink">
<g id="graph0" class="graph" transform="scale(1 1) rotate(0) translate(4 294.5)">
<title>Entity Relationship Diagram</title>
<polygon fill="white" stroke="transparent" points="-4,4 -4,-294.5 688,-294.5 688,4 -4,4"/>
<text text-anchor="middle" x="342" y="-6.8" font-family="Times,serif" font-size="9.00" fill="#a8a8a8">Created by erdantic v0.1.0 &lt;https://github.com/drivendataorg/erdantic&gt;</text>
<!-- Adventurer -->
<g id="node1" class="node">
<title>Adventurer</title>
<polygon fill="none" stroke="black" points="336,-265 336,-286 420,-286 420,-265 336,-265"/>
<text text-anchor="start" x="344" y="-272.8" font-family="Times,serif" font-weight="bold" font-size="14.00">Adventurer</text>
<polygon fill="none" stroke="black" points="336,-244 336,-265 399,-265 399,-244 336,-244"/>
<text text-anchor="start" x="352" y="-250.8" font-family="Times,serif" font-size="14.00">name</text>
<polygon fill="none" stroke="black" points="399,-244 399,-265 420,-265 420,-244 399,-244"/>
<text text-anchor="start" x="402.5" y="-250.8" font-family="Times,serif" font-size="14.00">str</text>
<polygon fill="none" stroke="black" points="336,-223 336,-244 399,-244 399,-223 336,-223"/>
<text text-anchor="start" x="339" y="-229.8" font-family="Times,serif" font-size="14.00">profession</text>
<polygon fill="none" stroke="black" points="399,-223 399,-244 420,-244 420,-223 399,-223"/>
<text text-anchor="start" x="402.5" y="-229.8" font-family="Times,serif" font-size="14.00">str</text>
<polygon fill="none" stroke="black" points="336,-202 336,-223 399,-223 399,-202 336,-202"/>
<text text-anchor="start" x="354" y="-208.8" font-family="Times,serif" font-size="14.00">level</text>
<polygon fill="none" stroke="black" points="399,-202 399,-223 420,-223 420,-202 399,-202"/>
<text text-anchor="start" x="402" y="-208.8" font-family="Times,serif" font-size="14.00">int</text>
<polygon fill="none" stroke="black" points="336,-181 336,-202 399,-202 399,-181 336,-181"/>
<text text-anchor="start" x="347.5" y="-187.8" font-family="Times,serif" font-size="14.00">affinity</text>
<polygon fill="none" stroke="black" points="399,-181 399,-202 420,-202 420,-181 399,-181"/>
<text text-anchor="start" x="402.5" y="-187.8" font-family="Times,serif" font-size="14.00">str</text>
</g>
<!-- Party -->
<g id="node2" class="node">
<title>Party</title>
<polygon fill="none" stroke="black" points="0,-269 0,-290 198,-290 198,-269 0,-269"/>
<text text-anchor="start" x="82.5" y="-276.8" font-family="Times,serif" font-weight="bold" font-size="14.00">Party</text>
<polygon fill="none" stroke="black" points="0,-248 0,-269 100,-269 100,-248 0,-248"/>
<text text-anchor="start" x="34.5" y="-254.8" font-family="Times,serif" font-size="14.00">name</text>
<polygon fill="none" stroke="black" points="100,-248 100,-269 198,-269 198,-248 100,-248"/>
<text text-anchor="start" x="142" y="-254.8" font-family="Times,serif" font-size="14.00">str</text>
<polygon fill="none" stroke="black" points="0,-227 0,-248 100,-248 100,-227 0,-227"/>
<text text-anchor="start" x="3" y="-233.8" font-family="Times,serif" font-size="14.00">formed_datetime</text>
<polygon fill="none" stroke="black" points="100,-227 100,-248 198,-248 198,-227 100,-227"/>
<text text-anchor="start" x="125" y="-233.8" font-family="Times,serif" font-size="14.00">datetime</text>
<polygon fill="none" stroke="black" points="0,-206 0,-227 100,-227 100,-206 0,-206"/>
<text text-anchor="start" x="24" y="-212.8" font-family="Times,serif" font-size="14.00">members</text>
<polygon fill="none" stroke="black" points="100,-206 100,-227 198,-227 198,-206 100,-206"/>
<text text-anchor="start" x="103" y="-212.8" font-family="Times,serif" font-size="14.00">List[Adventurer]</text>
<polygon fill="none" stroke="black" points="0,-185 0,-206 100,-206 100,-185 0,-185"/>
<text text-anchor="start" x="16" y="-191.8" font-family="Times,serif" font-size="14.00">active_quest</text>
<polygon fill="none" stroke="black" points="100,-185 100,-206 198,-206 198,-185 100,-185"/>
<text text-anchor="start" x="105" y="-191.8" font-family="Times,serif" font-size="14.00">Optional[Quest]</text>
</g>
<!-- Party&#45;&gt;Adventurer -->
<g id="edge1" class="edge">
<title>Party:e&#45;&gt;Adventurer:w</title>
<path fill="none" stroke="black" d="M198,-216C257.85,-216 267.1,-264.64 316.87,-274.33"/>
<polygon fill="black" stroke="black" points="325.04,-275.08 334.59,-280.48 330.02,-275.54 335,-276 335,-276 335,-276 330.02,-275.54 335.41,-271.52 325.04,-275.08 325.04,-275.08"/>
<ellipse fill="none" stroke="black" cx="321.06" cy="-274.72" rx="4" ry="4"/>
</g>
<!-- Quest -->
<g id="node3" class="node">
<title>Quest</title>
<polygon fill="none" stroke="black" points="306,-124 306,-145 450,-145 450,-124 306,-124"/>
<text text-anchor="start" x="360.5" y="-131.8" font-family="Times,serif" font-weight="bold" font-size="14.00">Quest</text>
<polygon fill="none" stroke="black" points="306,-103 306,-124 381,-124 381,-103 306,-103"/>
<text text-anchor="start" x="328" y="-109.8" font-family="Times,serif" font-size="14.00">name</text>
<polygon fill="none" stroke="black" points="381,-103 381,-124 450,-124 450,-103 381,-103"/>
<text text-anchor="start" x="408.5" y="-109.8" font-family="Times,serif" font-size="14.00">str</text>
<polygon fill="none" stroke="black" points="306,-82 306,-103 381,-103 381,-82 306,-82"/>
<text text-anchor="start" x="329.5" y="-88.8" font-family="Times,serif" font-size="14.00">giver</text>
<polygon fill="none" stroke="black" points="381,-82 381,-103 450,-103 450,-82 381,-82"/>
<text text-anchor="start" x="384" y="-88.8" font-family="Times,serif" font-size="14.00">QuestGiver</text>
<polygon fill="none" stroke="black" points="306,-61 306,-82 381,-82 381,-61 306,-61"/>
<text text-anchor="start" x="309" y="-67.8" font-family="Times,serif" font-size="14.00">reward_gold</text>
<polygon fill="none" stroke="black" points="381,-61 381,-82 450,-82 450,-61 381,-61"/>
<text text-anchor="start" x="408" y="-67.8" font-family="Times,serif" font-size="14.00">int</text>
</g>
<!-- Party&#45;&gt;Quest -->
<g id="edge2" class="edge">
<title>Party:e&#45;&gt;Quest:w</title>
<path fill="none" stroke="black" d="M198,-195C246.15,-195 250.68,-148.86 288.1,-137.5"/>
<polyline fill="none" stroke="black" points="306,-135 301.05,-135.69 "/>
<polygon fill="black" stroke="black" points="299.37,-130.88 300.75,-140.78 298.77,-141.06 297.39,-131.16 299.37,-130.88"/>
<polyline fill="none" stroke="black" points="301.05,-135.69 296.1,-136.38 "/>
<ellipse fill="none" stroke="black" cx="292.13" cy="-136.94" rx="4" ry="4"/>
</g>
<!-- QuestGiver -->
<g id="node4" class="node">
<title>QuestGiver</title>
<polygon fill="none" stroke="black" points="558,-81 558,-102 684,-102 684,-81 558,-81"/>
<text text-anchor="start" x="586.5" y="-88.8" font-family="Times,serif" font-weight="bold" font-size="14.00">QuestGiver</text>
<polygon fill="none" stroke="black" points="558,-60 558,-81 608,-81 608,-60 558,-60"/>
<text text-anchor="start" x="567.5" y="-66.8" font-family="Times,serif" font-size="14.00">name</text>
<polygon fill="none" stroke="black" points="608,-60 608,-81 684,-81 684,-60 608,-60"/>
<text text-anchor="start" x="639" y="-66.8" font-family="Times,serif" font-size="14.00">str</text>
<polygon fill="none" stroke="black" points="558,-39 558,-60 608,-60 608,-39 558,-39"/>
<text text-anchor="start" x="564" y="-45.8" font-family="Times,serif" font-size="14.00">faction</text>
<polygon fill="none" stroke="black" points="608,-39 608,-60 684,-60 684,-39 608,-39"/>
<text text-anchor="start" x="611" y="-45.8" font-family="Times,serif" font-size="14.00">Optional[str]</text>
<polygon fill="none" stroke="black" points="558,-18 558,-39 608,-39 608,-18 558,-18"/>
<text text-anchor="start" x="561" y="-24.8" font-family="Times,serif" font-size="14.00">location</text>
<polygon fill="none" stroke="black" points="608,-18 608,-39 684,-39 684,-18 608,-18"/>
<text text-anchor="start" x="639" y="-24.8" font-family="Times,serif" font-size="14.00">str</text>
</g>
<!-- Quest&#45;&gt;QuestGiver -->
<g id="edge3" class="edge">
<title>Quest:e&#45;&gt;QuestGiver:w</title>
<path fill="none" stroke="black" d="M450,-92C492.56,-92 506.82,-92 542.97,-92"/>
<polyline fill="none" stroke="black" points="558,-92 553,-92 "/>
<polygon fill="black" stroke="black" points="552,-87 552,-97 550,-97 550,-87 552,-87"/>
<polyline fill="none" stroke="black" points="553,-92 548,-92 "/>
<polygon fill="black" stroke="black" points="547,-87 547,-97 545,-97 545,-87 547,-87"/>
<polyline fill="none" stroke="black" points="548,-92 543,-92 "/>
</g>
</g>
</svg>
