<?xml version="1.0" encoding="UTF-8" standalone="no"?>
<!DOCTYPE svg PUBLIC "-//W3C//DTD SVG 1.1//EN"
 "http://www.w3.org/Graphics/SVG/1.1/DTD/svg11.dtd">
<!-- Generated by graphviz version 2.46.0 (20210118.1747)
 -->
<!-- Pages: 1 -->
<svg width="790pt" height="281pt"
 viewBox="0.00 0.00 790.00 280.50" xmlns="http://www.w3.org/2000/svg" xmlns:xlink="http://www.w3.org/1999/xlink">
<g id="graph0" class="graph" transform="scale(1 1) rotate(0) translate(4 276.5)">
<polygon fill="white" stroke="transparent" points="-4,4 -4,-276.5 786,-276.5 786,4 -4,4"/>
<!-- Party -->
<g id="node1" class="node">
<title>Party</title>
<polygon fill="none" stroke="black" points="0.5,-251 0.5,-272 245.5,-272 245.5,-251 0.5,-251"/>
<text text-anchor="start" x="106.5" y="-258.8" font-family="Times,serif" font-weight="bold" font-size="14.00">Party</text>
<polygon fill="none" stroke="black" points="0.5,-230 0.5,-251 100.5,-251 100.5,-230 0.5,-230"/>
<text text-anchor="start" x="35" y="-236.8" font-family="Times,serif" font-size="14.00">name</text>
<polygon fill="none" stroke="black" points="100.5,-230 100.5,-251 245.5,-251 245.5,-230 100.5,-230"/>
<text text-anchor="start" x="166" y="-236.8" font-family="Times,serif" font-size="14.00">str</text>
<polygon fill="none" stroke="black" points="0.5,-209 0.5,-230 100.5,-230 100.5,-209 0.5,-209"/>
<text text-anchor="start" x="3.5" y="-215.8" font-family="Times,serif" font-size="14.00">formed_datetime</text>
<polygon fill="none" stroke="black" points="100.5,-209 100.5,-230 245.5,-230 245.5,-209 100.5,-209"/>
<text text-anchor="start" x="149" y="-215.8" font-family="Times,serif" font-size="14.00">datetime</text>
<polygon fill="none" stroke="black" points="0.5,-188 0.5,-209 100.5,-209 100.5,-188 0.5,-188"/>
<text text-anchor="start" x="24.5" y="-194.8" font-family="Times,serif" font-size="14.00">members</text>
<polygon fill="none" stroke="black" points="100.5,-188 100.5,-209 245.5,-209 245.5,-188 100.5,-188"/>
<text text-anchor="start" x="127" y="-194.8" font-family="Times,serif" font-size="14.00">List[Adventurer]</text>
<polygon fill="none" stroke="black" points="0.5,-167 0.5,-188 100.5,-188 100.5,-167 0.5,-167"/>
<text text-anchor="start" x="16.5" y="-173.8" font-family="Times,serif" font-size="14.00">active_quest</text>
<polygon fill="none" stroke="black" points="100.5,-167 100.5,-188 245.5,-188 245.5,-167 100.5,-167"/>
<text text-anchor="start" x="103.5" y="-173.8" font-family="Times,serif" font-size="14.00">Union[Quest, NoneType]</text>
</g>
<!-- Quest -->
<g id="node2" class="node">
<title>Quest</title>
<polygon fill="none" stroke="black" points="353,-106 353,-127 497,-127 497,-106 353,-106"/>
<text text-anchor="start" x="407.5" y="-113.8" font-family="Times,serif" font-weight="bold" font-size="14.00">Quest</text>
<polygon fill="none" stroke="black" points="353,-85 353,-106 428,-106 428,-85 353,-85"/>
<text text-anchor="start" x="375" y="-91.8" font-family="Times,serif" font-size="14.00">name</text>
<polygon fill="none" stroke="black" points="428,-85 428,-106 497,-106 497,-85 428,-85"/>
<text text-anchor="start" x="455.5" y="-91.8" font-family="Times,serif" font-size="14.00">str</text>
<polygon fill="none" stroke="black" points="353,-64 353,-85 428,-85 428,-64 353,-64"/>
<text text-anchor="start" x="376.5" y="-70.8" font-family="Times,serif" font-size="14.00">giver</text>
<polygon fill="none" stroke="black" points="428,-64 428,-85 497,-85 497,-64 428,-64"/>
<text text-anchor="start" x="431" y="-70.8" font-family="Times,serif" font-size="14.00">QuestGiver</text>
<polygon fill="none" stroke="black" points="353,-43 353,-64 428,-64 428,-43 353,-43"/>
<text text-anchor="start" x="356" y="-49.8" font-family="Times,serif" font-size="14.00">reward_gold</text>
<polygon fill="none" stroke="black" points="428,-43 428,-64 497,-64 497,-43 428,-43"/>
<text text-anchor="start" x="455" y="-49.8" font-family="Times,serif" font-size="14.00">int</text>
</g>
<!-- Party&#45;&gt;Quest -->
<g id="edge1" class="edge">
<title>Party:e&#45;&gt;Quest:w</title>
<path fill="none" stroke="black" d="M245,-177C293.15,-177 297.68,-130.86 335.1,-119.5"/>
<polyline fill="none" stroke="black" points="353,-117 348.05,-117.69 "/>
<polygon fill="black" stroke="black" points="346.37,-112.88 347.75,-122.78 345.77,-123.06 344.39,-113.16 346.37,-112.88"/>
<polyline fill="none" stroke="black" points="348.05,-117.69 343.1,-118.38 "/>
<ellipse fill="none" stroke="black" cx="339.13" cy="-118.94" rx="4" ry="4"/>
</g>
<!-- Adventurer -->
<g id="node3" class="node">
<title>Adventurer</title>
<polygon fill="none" stroke="black" points="383,-247 383,-268 467,-268 467,-247 383,-247"/>
<text text-anchor="start" x="391" y="-254.8" font-family="Times,serif" font-weight="bold" font-size="14.00">Adventurer</text>
<polygon fill="none" stroke="black" points="383,-226 383,-247 446,-247 446,-226 383,-226"/>
<text text-anchor="start" x="399" y="-232.8" font-family="Times,serif" font-size="14.00">name</text>
<polygon fill="none" stroke="black" points="446,-226 446,-247 467,-247 467,-226 446,-226"/>
<text text-anchor="start" x="449.5" y="-232.8" font-family="Times,serif" font-size="14.00">str</text>
<polygon fill="none" stroke="black" points="383,-205 383,-226 446,-226 446,-205 383,-205"/>
<text text-anchor="start" x="386" y="-211.8" font-family="Times,serif" font-size="14.00">profession</text>
<polygon fill="none" stroke="black" points="446,-205 446,-226 467,-226 467,-205 446,-205"/>
<text text-anchor="start" x="449.5" y="-211.8" font-family="Times,serif" font-size="14.00">str</text>
<polygon fill="none" stroke="black" points="383,-184 383,-205 446,-205 446,-184 383,-184"/>
<text text-anchor="start" x="401" y="-190.8" font-family="Times,serif" font-size="14.00">level</text>
<polygon fill="none" stroke="black" points="446,-184 446,-205 467,-205 467,-184 446,-184"/>
<text text-anchor="start" x="449" y="-190.8" font-family="Times,serif" font-size="14.00">int</text>
<polygon fill="none" stroke="black" points="383,-163 383,-184 446,-184 446,-163 383,-163"/>
<text text-anchor="start" x="394.5" y="-169.8" font-family="Times,serif" font-size="14.00">affinity</text>
<polygon fill="none" stroke="black" points="446,-163 446,-184 467,-184 467,-163 446,-163"/>
<text text-anchor="start" x="449.5" y="-169.8" font-family="Times,serif" font-size="14.00">str</text>
</g>
<!-- Party&#45;&gt;Adventurer -->
<g id="edge2" class="edge">
<title>Party:e&#45;&gt;Adventurer:w</title>
<path fill="none" stroke="black" d="M245,-198C304.85,-198 314.1,-246.64 363.87,-256.33"/>
<polygon fill="black" stroke="black" points="372.04,-257.08 381.59,-262.48 377.02,-257.54 382,-258 382,-258 382,-258 377.02,-257.54 382.41,-253.52 372.04,-257.08 372.04,-257.08"/>
<ellipse fill="none" stroke="black" cx="368.06" cy="-256.72" rx="4" ry="4"/>
</g>
<!-- QuestGiver -->
<g id="node4" class="node">
<title>QuestGiver</title>
<polygon fill="none" stroke="black" points="605.5,-63 605.5,-84 782.5,-84 782.5,-63 605.5,-63"/>
<text text-anchor="start" x="659.5" y="-70.8" font-family="Times,serif" font-weight="bold" font-size="14.00">QuestGiver</text>
<polygon fill="none" stroke="black" points="605.5,-42 605.5,-63 655.5,-63 655.5,-42 605.5,-42"/>
<text text-anchor="start" x="615" y="-48.8" font-family="Times,serif" font-size="14.00">name</text>
<polygon fill="none" stroke="black" points="655.5,-42 655.5,-63 782.5,-63 782.5,-42 655.5,-42"/>
<text text-anchor="start" x="712" y="-48.8" font-family="Times,serif" font-size="14.00">str</text>
<polygon fill="none" stroke="black" points="605.5,-21 605.5,-42 655.5,-42 655.5,-21 605.5,-21"/>
<text text-anchor="start" x="611.5" y="-27.8" font-family="Times,serif" font-size="14.00">faction</text>
<polygon fill="none" stroke="black" points="655.5,-21 655.5,-42 782.5,-42 782.5,-21 655.5,-21"/>
<text text-anchor="start" x="658.5" y="-27.8" font-family="Times,serif" font-size="14.00">Union[str, NoneType]</text>
<polygon fill="none" stroke="black" points="605.5,0 605.5,-21 655.5,-21 655.5,0 605.5,0"/>
<text text-anchor="start" x="608.5" y="-6.8" font-family="Times,serif" font-size="14.00">location</text>
<polygon fill="none" stroke="black" points="655.5,0 655.5,-21 782.5,-21 782.5,0 655.5,0"/>
<text text-anchor="start" x="712" y="-6.8" font-family="Times,serif" font-size="14.00">str</text>
</g>
<!-- Quest&#45;&gt;QuestGiver -->
<g id="edge3" class="edge">
<title>Quest:e&#45;&gt;QuestGiver:w</title>
<path fill="none" stroke="black" d="M497,-74C539.56,-74 553.82,-74 589.97,-74"/>
<polyline fill="none" stroke="black" points="605,-74 600,-74 "/>
<polygon fill="black" stroke="black" points="599,-69 599,-79 597,-79 597,-69 599,-69"/>
<polyline fill="none" stroke="black" points="600,-74 595,-74 "/>
<polygon fill="black" stroke="black" points="594,-69 594,-79 592,-79 592,-69 594,-69"/>
<polyline fill="none" stroke="black" points="595,-74 590,-74 "/>
</g>
</g>
</svg>
