<?xml version="1.0" encoding="UTF-8" standalone="no"?>
<!DOCTYPE svg PUBLIC "-//W3C//DTD SVG 1.1//EN"
 "http://www.w3.org/Graphics/SVG/1.1/DTD/svg11.dtd">
<!-- Generated by graphviz version 9.0.0 (0)
 -->
<!-- Title: Entity Relationship Diagram created by erdantic Pages: 1 -->
<svg width="986pt" height="379pt"
 viewBox="0.00 0.00 986.00 378.50" xmlns="http://www.w3.org/2000/svg" xmlns:xlink="http://www.w3.org/1999/xlink">
<g id="graph0" class="graph" transform="scale(1 1) rotate(0) translate(4 374.5)">
<title>Entity Relationship Diagram created by erdantic</title>
<polygon fill="white" stroke="none" points="-4,4 -4,-374.5 982,-374.5 982,4 -4,4"/>
<text text-anchor="middle" x="489" y="-5.95" font-family="Times New Roman,Times,Liberation Serif,serif" font-size="9.00" fill="#a8a8a8">Created by erdantic v1.0.0.dev0 &lt;https://github.com/drivendataorg/erdantic&gt;</text>
<!-- erdantic.core.Edge -->
<g id="node1" class="node">
<title>erdantic.core.Edge</title>
<g id="a_node1"><a xlink:title="erdantic.core.Edge&#10;&#10;Hold information about a relationship between two data model classes. These represent&#10;directed edges in the entity relationship diagram.&#10;&#10;Attributes:&#10; &#160;&#160;&#160;source_model_full_name (FullyQualifiedName): Fully qualified name of the source model,&#10; &#160;&#160;&#160;&#160;&#160;&#160;&#160;i.e., the model that contains a field that references the target model.&#10; &#160;&#160;&#160;source_field_name (str): Name of the field on the source model that references the target&#10; &#160;&#160;&#160;&#160;&#160;&#160;&#160;model.&#10; &#160;&#160;&#160;target_model_full_name (FullyQualifiedName): Fully qualified name of the target model,&#10; &#160;&#160;&#160;&#160;&#160;&#160;&#160;i.e., the model that is referenced by the source model&#39;s field.&#10; &#160;&#160;&#160;target_cardinality (Cardinality): Cardinality of the target model in the relationship,&#10; &#160;&#160;&#160;&#160;&#160;&#160;&#160;e.g., if the relationship is one (source) to many (target), this value will be&#10; &#160;&#160;&#160;&#160;&#160;&#160;&#160;`Cardinality.MANY`.&#10; &#160;&#160;&#160;target_modality (Modality): Modality of the target model in the relationship, e.g., if the&#10; &#160;&#160;&#160;&#160;&#160;&#160;&#160;relationship is one (source) to zero (target), meaning that the target is optional,&#10; &#160;&#160;&#160;&#160;&#160;&#160;&#160;this value will be `Modality.ZERO`.&#10; &#160;&#160;&#160;source_cardinality (Optional[Cardinality]): Cardinality of the source model in the&#10; &#160;&#160;&#160;&#160;&#160;&#160;&#160;relationship. This will never be set for Edges created by erdantic, but you can set it&#10; &#160;&#160;&#160;&#160;&#160;&#160;&#160;manually to notate an externally known cardinality.&#10; &#160;&#160;&#160;source_modality (Optional[Modality]): Modality of the source model in the relationship.&#10; &#160;&#160;&#160;&#160;&#160;&#160;&#160;This will never be set for Edges created by erdantic, but you can set it manually to&#10; &#160;&#160;&#160;&#160;&#160;&#160;&#160;notate an externally known modality.&#10;">
<polygon fill="none" stroke="black" points="255,-172.5 255,-194.5 517,-194.5 517,-172.5 255,-172.5"/>
<text text-anchor="start" x="371.38" y="-179.2" font-family="Times New Roman,Times,Liberation Serif,serif" font-weight="bold" font-size="14.00">Edge</text>
<polygon fill="none" stroke="black" points="255,-150.5 255,-172.5 399,-172.5 399,-150.5 255,-150.5"/>
<text text-anchor="start" x="257.62" y="-156.2" font-family="Times New Roman,Times,Liberation Serif,serif" font-size="14.00">source_model_full_name</text>
<polygon fill="none" stroke="black" points="399,-150.5 399,-172.5 517,-172.5 517,-150.5 399,-150.5"/>
<text text-anchor="start" x="401.75" y="-156.2" font-family="Times New Roman,Times,Liberation Serif,serif" font-size="14.00">FullyQualifiedName</text>
<polygon fill="none" stroke="black" points="255,-128.5 255,-150.5 399,-150.5 399,-128.5 255,-128.5"/>
<text text-anchor="start" x="275.25" y="-134.2" font-family="Times New Roman,Times,Liberation Serif,serif" font-size="14.00">source_field_name</text>
<polygon fill="none" stroke="black" points="399,-128.5 399,-150.5 517,-150.5 517,-128.5 399,-128.5"/>
<text text-anchor="start" x="451.25" y="-134.2" font-family="Times New Roman,Times,Liberation Serif,serif" font-size="14.00">str</text>
<polygon fill="none" stroke="black" points="255,-106.5 255,-128.5 399,-128.5 399,-106.5 255,-106.5"/>
<text text-anchor="start" x="259.88" y="-112.2" font-family="Times New Roman,Times,Liberation Serif,serif" font-size="14.00">target_model_full_name</text>
<polygon fill="none" stroke="black" points="399,-106.5 399,-128.5 517,-128.5 517,-106.5 399,-106.5"/>
<text text-anchor="start" x="401.75" y="-112.2" font-family="Times New Roman,Times,Liberation Serif,serif" font-size="14.00">FullyQualifiedName</text>
<polygon fill="none" stroke="black" points="255,-84.5 255,-106.5 399,-106.5 399,-84.5 255,-84.5"/>
<text text-anchor="start" x="279.38" y="-90.2" font-family="Times New Roman,Times,Liberation Serif,serif" font-size="14.00">target_cardinality</text>
<polygon fill="none" stroke="black" points="399,-84.5 399,-106.5 517,-106.5 517,-84.5 399,-84.5"/>
<text text-anchor="start" x="427.62" y="-90.2" font-family="Times New Roman,Times,Liberation Serif,serif" font-size="14.00">Cardinality</text>
<polygon fill="none" stroke="black" points="255,-62.5 255,-84.5 399,-84.5 399,-62.5 255,-62.5"/>
<text text-anchor="start" x="283.88" y="-68.2" font-family="Times New Roman,Times,Liberation Serif,serif" font-size="14.00">target_modality</text>
<polygon fill="none" stroke="black" points="399,-62.5 399,-84.5 517,-84.5 517,-62.5 399,-62.5"/>
<text text-anchor="start" x="432.88" y="-68.2" font-family="Times New Roman,Times,Liberation Serif,serif" font-size="14.00">Modality</text>
<polygon fill="none" stroke="black" points="255,-40.5 255,-62.5 399,-62.5 399,-40.5 255,-40.5"/>
<text text-anchor="start" x="277.12" y="-46.2" font-family="Times New Roman,Times,Liberation Serif,serif" font-size="14.00">source_cardinality</text>
<polygon fill="none" stroke="black" points="399,-40.5 399,-62.5 517,-62.5 517,-40.5 399,-40.5"/>
<text text-anchor="start" x="427.62" y="-46.2" font-family="Times New Roman,Times,Liberation Serif,serif" font-size="14.00">Cardinality</text>
<polygon fill="none" stroke="black" points="255,-18.5 255,-40.5 399,-40.5 399,-18.5 255,-18.5"/>
<text text-anchor="start" x="281.62" y="-24.2" font-family="Times New Roman,Times,Liberation Serif,serif" font-size="14.00">source_modality</text>
<polygon fill="none" stroke="black" points="399,-18.5 399,-40.5 517,-40.5 517,-18.5 399,-18.5"/>
<text text-anchor="start" x="432.88" y="-24.2" font-family="Times New Roman,Times,Liberation Serif,serif" font-size="14.00">Modality</text>
</a>
</g>
</g>
<!-- erdantic.core.FullyQualifiedName -->
<g id="node2" class="node">
<title>erdantic.core.FullyQualifiedName</title>
<g id="a_node2"><a xlink:title="erdantic.core.FullyQualifiedName&#10;&#10;Holds the fully qualified name components (module and qualified name) of a Python object.&#10;This is used to uniquely identify an object, can be used to import it.&#10;&#10;Attributes:&#10; &#160;&#160;&#160;module (str): Name of the module that the object is defined in.&#10; &#160;&#160;&#160;qual_name (str): Qualified name of the object.&#10;">
<polygon fill="none" stroke="black" points="853,-205.5 853,-227.5 978,-227.5 978,-205.5 853,-205.5"/>
<text text-anchor="start" x="855.88" y="-212.2" font-family="Times New Roman,Times,Liberation Serif,serif" font-weight="bold" font-size="14.00">FullyQualifiedName</text>
<polygon fill="none" stroke="black" points="853,-183.5 853,-205.5 939,-205.5 939,-183.5 853,-183.5"/>
<text text-anchor="start" x="875.38" y="-189.2" font-family="Times New Roman,Times,Liberation Serif,serif" font-size="14.00">module</text>
<polygon fill="none" stroke="black" points="939,-183.5 939,-205.5 978,-205.5 978,-183.5 939,-183.5"/>
<text text-anchor="start" x="951.75" y="-189.2" font-family="Times New Roman,Times,Liberation Serif,serif" font-size="14.00">str</text>
<polygon fill="none" stroke="black" points="853,-161.5 853,-183.5 939,-183.5 939,-161.5 853,-161.5"/>
<text text-anchor="start" x="866" y="-167.2" font-family="Times New Roman,Times,Liberation Serif,serif" font-size="14.00">qual_name</text>
<polygon fill="none" stroke="black" points="939,-161.5 939,-183.5 978,-183.5 978,-161.5 939,-161.5"/>
<text text-anchor="start" x="951.75" y="-167.2" font-family="Times New Roman,Times,Liberation Serif,serif" font-size="14.00">str</text>
</a>
</g>
</g>
<!-- erdantic.core.Edge&#45;&gt;erdantic.core.FullyQualifiedName -->
<g id="edge1" class="edge">
<title>erdantic.core.Edge:e&#45;&gt;erdantic.core.FullyQualifiedName:w</title>
<path fill="none" stroke="black" d="M526.67,-161.52C643.38,-162.05 676.48,-172.42 795,-198.5 815.8,-203.08 823.08,-211.64 838.49,-215.05"/>
<polyline fill="none" stroke="black" points="517,-161.5 522,-161.51"/>
<polyline fill="none" stroke="black" points="522,-161.51 527,-161.52"/>
<polyline fill="none" stroke="black" points="853,-216.5 848.02,-216"/>
<polygon fill="black" stroke="black" points="847.53,-210.93 846.53,-220.88 844.54,-220.68 845.54,-210.73 847.53,-210.93"/>
<polyline fill="none" stroke="black" points="848.02,-216 843.05,-215.5"/>
<polygon fill="black" stroke="black" points="842.55,-210.43 841.56,-220.38 839.57,-220.18 840.56,-210.23 842.55,-210.43"/>
<polyline fill="none" stroke="black" points="843.05,-215.5 838.07,-215"/>
</g>
<!-- erdantic.core.Edge&#45;&gt;erdantic.core.FullyQualifiedName -->
<g id="edge2" class="edge">
<title>erdantic.core.Edge:e&#45;&gt;erdantic.core.FullyQualifiedName:w</title>
<path fill="none" stroke="black" d="M526.69,-117.46C643.94,-116.5 687.11,-98.94 795,-154.5 823.17,-169.01 818.32,-202.88 838.39,-213.35"/>
<polyline fill="none" stroke="black" points="517,-117.5 522,-117.48"/>
<polyline fill="none" stroke="black" points="522,-117.48 527,-117.46"/>
<polyline fill="none" stroke="black" points="853,-216.5 848.11,-215.45"/>
<polygon fill="black" stroke="black" points="848.19,-210.35 846.08,-220.12 844.13,-219.7 846.23,-209.93 848.19,-210.35"/>
<polyline fill="none" stroke="black" points="848.11,-215.45 843.22,-214.39"/>
<polygon fill="black" stroke="black" points="843.3,-209.3 841.19,-219.07 839.24,-218.65 841.34,-208.88 843.3,-209.3"/>
<polyline fill="none" stroke="black" points="843.22,-214.39 838.34,-213.34"/>
</g>
<!-- erdantic.core.EntityRelationshipDiagram -->
<g id="node3" class="node">
<title>erdantic.core.EntityRelationshipDiagram</title>
<g id="a_node3"><a xlink:title="erdantic.core.EntityRelationshipDiagram&#10;&#10;Holds information about an entity relationship diagram for a set of data model classes and&#10;their relationships, and provides methods to render the diagram.&#10;&#10;Attributes:&#10; &#160;&#160;&#160;models (SortedDict[str, ModelInfo]): Mapping of ModelInfo instances for models included&#10; &#160;&#160;&#160;&#160;&#160;&#160;&#160;in the diagram. Each key is the string representation of the fully qualified name of&#10; &#160;&#160;&#160;&#160;&#160;&#160;&#160;the model.&#10; &#160;&#160;&#160;edges (SortedSet[Edge]): Set of edges representing relationships between the models.&#10;">
<polygon fill="none" stroke="black" points="0,-293.5 0,-315.5 197,-315.5 197,-293.5 0,-293.5"/>
<text text-anchor="start" x="18.25" y="-300.2" font-family="Times New Roman,Times,Liberation Serif,serif" font-weight="bold" font-size="14.00">EntityRelationshipDiagram</text>
<polygon fill="none" stroke="black" points="0,-271.5 0,-293.5 45,-293.5 45,-271.5 0,-271.5"/>
<text text-anchor="start" x="2.62" y="-277.2" font-family="Times New Roman,Times,Liberation Serif,serif" font-size="14.00">models</text>
<polygon fill="none" stroke="black" points="45,-271.5 45,-293.5 197,-293.5 197,-271.5 45,-271.5"/>
<text text-anchor="start" x="47.88" y="-277.2" font-family="Times New Roman,Times,Liberation Serif,serif" font-size="14.00">SortedDict[str, ModelInfo]</text>
<polygon fill="none" stroke="black" points="0,-249.5 0,-271.5 45,-271.5 45,-249.5 0,-249.5"/>
<text text-anchor="start" x="7.12" y="-255.2" font-family="Times New Roman,Times,Liberation Serif,serif" font-size="14.00">edges</text>
<polygon fill="none" stroke="black" points="45,-249.5 45,-271.5 197,-271.5 197,-249.5 45,-249.5"/>
<text text-anchor="start" x="63.25" y="-255.2" font-family="Times New Roman,Times,Liberation Serif,serif" font-size="14.00">SortedDict[str, Edge]</text>
</a>
</g>
</g>
<!-- erdantic.core.EntityRelationshipDiagram&#45;&gt;erdantic.core.Edge -->
<g id="edge3" class="edge">
<title>erdantic.core.EntityRelationshipDiagram:e&#45;&gt;erdantic.core.Edge:w</title>
<path fill="none" stroke="black" d="M206.57,-258.89C230.96,-249.61 220.92,-202.74 240.28,-187.97"/>
<polyline fill="none" stroke="black" points="197,-260.5 201.93,-259.67"/>
<polyline fill="none" stroke="black" points="201.93,-259.67 206.86,-258.84"/>
<polygon fill="black" stroke="black" points="245.11,-186.5 255.99,-187.9 250.22,-184.95 254.36,-183.69 254.36,-183.69 254.36,-183.69 250.22,-184.95 253.37,-179.29 245.11,-186.5"/>
<polyline fill="none" stroke="black" points="243.94,-186.85 239.16,-188.31"/>
</g>
<!-- erdantic.core.ModelInfo -->
<g id="node4" class="node">
<title>erdantic.core.ModelInfo</title>
<g id="a_node4"><a xlink:title="erdantic.core.ModelInfo&#10;&#10;Holds information about an analyzed data model class.&#10;&#10;Attributes:&#10; &#160;&#160;&#160;full_name (FullyQualifiedName): Fully qualified name of the data model class.&#10; &#160;&#160;&#160;name (str): Name of the data model class.&#10; &#160;&#160;&#160;fields (Dict[str, FieldInfo]): A mapping to FieldInfo instances for each field of the data&#10; &#160;&#160;&#160;&#160;&#160;&#160;&#160;model class.&#10; &#160;&#160;&#160;description (str): Docstring or other description of the data model class.&#10;">
<polygon fill="none" stroke="black" points="294,-348.5 294,-370.5 478,-370.5 478,-348.5 294,-348.5"/>
<text text-anchor="start" x="355.25" y="-355.2" font-family="Times New Roman,Times,Liberation Serif,serif" font-weight="bold" font-size="14.00">ModelInfo</text>
<polygon fill="none" stroke="black" points="294,-326.5 294,-348.5 360,-348.5 360,-326.5 294,-326.5"/>
<text text-anchor="start" x="299.25" y="-332.2" font-family="Times New Roman,Times,Liberation Serif,serif" font-size="14.00">full_name</text>
<polygon fill="none" stroke="black" points="360,-326.5 360,-348.5 478,-348.5 478,-326.5 360,-326.5"/>
<text text-anchor="start" x="362.75" y="-332.2" font-family="Times New Roman,Times,Liberation Serif,serif" font-size="14.00">FullyQualifiedName</text>
<polygon fill="none" stroke="black" points="294,-304.5 294,-326.5 360,-326.5 360,-304.5 294,-304.5"/>
<text text-anchor="start" x="312" y="-310.2" font-family="Times New Roman,Times,Liberation Serif,serif" font-size="14.00">name</text>
<polygon fill="none" stroke="black" points="360,-304.5 360,-326.5 478,-326.5 478,-304.5 360,-304.5"/>
<text text-anchor="start" x="412.25" y="-310.2" font-family="Times New Roman,Times,Liberation Serif,serif" font-size="14.00">str</text>
<polygon fill="none" stroke="black" points="294,-282.5 294,-304.5 360,-304.5 360,-282.5 294,-282.5"/>
<text text-anchor="start" x="312" y="-288.2" font-family="Times New Roman,Times,Liberation Serif,serif" font-size="14.00">fields</text>
<polygon fill="none" stroke="black" points="360,-282.5 360,-304.5 478,-304.5 478,-282.5 360,-282.5"/>
<text text-anchor="start" x="367.62" y="-288.2" font-family="Times New Roman,Times,Liberation Serif,serif" font-size="14.00">Dict[str, FieldInfo]</text>
<polygon fill="none" stroke="black" points="294,-260.5 294,-282.5 360,-282.5 360,-260.5 294,-260.5"/>
<text text-anchor="start" x="297" y="-266.2" font-family="Times New Roman,Times,Liberation Serif,serif" font-size="14.00">description</text>
<polygon fill="none" stroke="black" points="360,-260.5 360,-282.5 478,-282.5 478,-260.5 360,-260.5"/>
<text text-anchor="start" x="412.25" y="-266.2" font-family="Times New Roman,Times,Liberation Serif,serif" font-size="14.00">str</text>
</a>
</g>
</g>
<!-- erdantic.core.EntityRelationshipDiagram&#45;&gt;erdantic.core.ModelInfo -->
<g id="edge4" class="edge">
<title>erdantic.core.EntityRelationshipDiagram:e&#45;&gt;erdantic.core.ModelInfo:w</title>
<path fill="none" stroke="black" d="M206.76,-283.42C245.5,-291.16 243.05,-345.46 278.2,-357.25"/>
<polyline fill="none" stroke="black" points="197,-282.5 201.98,-282.97"/>
<polyline fill="none" stroke="black" points="201.98,-282.97 206.96,-283.44"/>
<polygon fill="black" stroke="black" points="282.78,-357.94 291.99,-363.9 288.06,-358.75 292.34,-359.4 292.34,-359.4 292.34,-359.4 288.06,-358.75 293.35,-355 282.78,-357.94"/>
<polyline fill="none" stroke="black" points="281.58,-357.76 276.64,-357.01"/>
</g>
<!-- erdantic.core.ModelInfo&#45;&gt;erdantic.core.FullyQualifiedName -->
<g id="edge7" class="edge">
<title>erdantic.core.ModelInfo:e&#45;&gt;erdantic.core.FullyQualifiedName:w</title>
<path fill="none" stroke="black" d="M488.75,-337.6C622.27,-340.22 678.58,-395.29 795,-322.5 835.55,-297.14 807.28,-232.87 838.55,-219.12"/>
<polyline fill="none" stroke="black" points="479,-337.5 484,-337.55"/>
<polyline fill="none" stroke="black" points="484,-337.55 489,-337.6"/>
<polyline fill="none" stroke="black" points="853,-216.5 848.08,-217.39"/>
<polygon fill="black" stroke="black" points="846.21,-212.65 847.99,-222.49 846.02,-222.85 844.24,-213.01 846.21,-212.65"/>
<polyline fill="none" stroke="black" points="848.08,-217.39 843.16,-218.28"/>
<polygon fill="black" stroke="black" points="841.29,-213.54 843.07,-223.38 841.1,-223.74 839.32,-213.9 841.29,-213.54"/>
<polyline fill="none" stroke="black" points="843.16,-218.28 838.24,-219.17"/>
</g>
<!-- erdantic.core.FieldInfo -->
<g id="node5" class="node">
<title>erdantic.core.FieldInfo</title>
<g id="a_node5"><a xlink:title="erdantic.core.FieldInfo&#10;&#10;Holds information about a field of an analyzed data model class.&#10;&#10;Attributes:&#10; &#160;&#160;&#160;model_full_name (FullyQualifiedName): Fully qualified name of the data model class that&#10; &#160;&#160;&#160;&#160;&#160;&#160;&#160;the field belongs to.&#10; &#160;&#160;&#160;name (str): Name of the field.&#10; &#160;&#160;&#160;type_name (str): String representation of the field&#39;s type.&#10;">
<polygon fill="none" stroke="black" points="575,-282.5 575,-304.5 795,-304.5 795,-282.5 575,-282.5"/>
<text text-anchor="start" x="658.38" y="-289.2" font-family="Times New Roman,Times,Liberation Serif,serif" font-weight="bold" font-size="14.00">FieldInfo</text>
<polygon fill="none" stroke="black" points="575,-260.5 575,-282.5 677,-282.5 677,-260.5 575,-260.5"/>
<text text-anchor="start" x="577.62" y="-266.2" font-family="Times New Roman,Times,Liberation Serif,serif" font-size="14.00">model_full_name</text>
<polygon fill="none" stroke="black" points="677,-260.5 677,-282.5 795,-282.5 795,-260.5 677,-260.5"/>
<text text-anchor="start" x="679.75" y="-266.2" font-family="Times New Roman,Times,Liberation Serif,serif" font-size="14.00">FullyQualifiedName</text>
<polygon fill="none" stroke="black" points="575,-238.5 575,-260.5 677,-260.5 677,-238.5 575,-238.5"/>
<text text-anchor="start" x="611" y="-244.2" font-family="Times New Roman,Times,Liberation Serif,serif" font-size="14.00">name</text>
<polygon fill="none" stroke="black" points="677,-238.5 677,-260.5 795,-260.5 795,-238.5 677,-238.5"/>
<text text-anchor="start" x="729.25" y="-244.2" font-family="Times New Roman,Times,Liberation Serif,serif" font-size="14.00">str</text>
<polygon fill="none" stroke="black" points="575,-216.5 575,-238.5 677,-238.5 677,-216.5 575,-216.5"/>
<text text-anchor="start" x="596" y="-222.2" font-family="Times New Roman,Times,Liberation Serif,serif" font-size="14.00">type_name</text>
<polygon fill="none" stroke="black" points="677,-216.5 677,-238.5 795,-238.5 795,-216.5 677,-216.5"/>
<text text-anchor="start" x="729.25" y="-222.2" font-family="Times New Roman,Times,Liberation Serif,serif" font-size="14.00">str</text>
</a>
</g>
</g>
<!-- erdantic.core.ModelInfo&#45;&gt;erdantic.core.FieldInfo -->
<g id="edge6" class="edge">
<title>erdantic.core.ModelInfo:e&#45;&gt;erdantic.core.FieldInfo:w</title>
<path fill="none" stroke="black" d="M488.89,-293.5C518.75,-293.5 531.96,-293.5 559.94,-293.5"/>
<polyline fill="none" stroke="black" points="479,-293.5 484,-293.5"/>
<polyline fill="none" stroke="black" points="484,-293.5 489,-293.5"/>
<polygon fill="black" stroke="black" points="564.67,-293.5 574.67,-298 570,-293.5 574.33,-293.5 574.33,-293.5 574.33,-293.5 570,-293.5 574.67,-289 564.67,-293.5"/>
<polyline fill="none" stroke="black" points="563.45,-293.5 558.45,-293.5"/>
</g>
<!-- erdantic.core.FieldInfo&#45;&gt;erdantic.core.FullyQualifiedName -->
<g id="edge5" class="edge">
<title>erdantic.core.FieldInfo:e&#45;&gt;erdantic.core.FullyQualifiedName:w</title>
<path fill="none" stroke="black" d="M804.73,-269.79C823.89,-262.25 822.8,-231.78 838.77,-220.62"/>
<polyline fill="none" stroke="black" points="795,-271.5 799.92,-270.64"/>
<polyline fill="none" stroke="black" points="799.92,-270.64 804.85,-269.77"/>
<polyline fill="none" stroke="black" points="853,-216.5 848.2,-217.89"/>
<polygon fill="black" stroke="black" points="845.85,-213.37 848.63,-222.97 846.71,-223.53 843.92,-213.92 845.85,-213.37"/>
<polyline fill="none" stroke="black" points="848.2,-217.89 843.39,-219.28"/>
<polygon fill="black" stroke="black" points="841.04,-214.76 843.83,-224.36 841.9,-224.92 839.12,-215.31 841.04,-214.76"/>
<polyline fill="none" stroke="black" points="843.39,-219.28 838.59,-220.67"/>
</g>
</g>
</svg>
