<?xml version="1.0" encoding="UTF-8" standalone="no"?>
<!DOCTYPE svg PUBLIC "-//W3C//DTD SVG 1.1//EN"
 "http://www.w3.org/Graphics/SVG/1.1/DTD/svg11.dtd">
<!-- Generated by graphviz version 12.2.1 (0)
 -->
<!-- Title: Entity Relationship Diagram created by erdantic Pages: 1 -->
<svg width="990pt" height="385pt"
 viewBox="0.00 0.00 989.75 384.75" xmlns="http://www.w3.org/2000/svg" xmlns:xlink="http://www.w3.org/1999/xlink">
<g id="graph0" class="graph" transform="scale(1 1) rotate(0) translate(4 380.75)">
<title>Entity Relationship Diagram created by erdantic</title>
<polygon fill="white" stroke="none" points="-4,4 -4,-380.75 985.75,-380.75 985.75,4 -4,4"/>
<text text-anchor="middle" x="490.88" y="-5.95" font-family="Times New Roman,Times,Liberation Serif,serif" font-size="9.00" fill="#a8a8a8">Created by erdantic v1.1.1.dev0 &lt;https://github.com/drivendataorg/erdantic&gt;</text>
<!-- erdantic.core.Edge -->
<g id="node1" class="node">
<title>erdantic.core.Edge</title>
<g id="a_node1"><a xlink:title="erdantic.core.Edge&#10;&#10;Hold information about a relationship between two data model classes. These represent&#10;directed edges in the entity relationship diagram.&#10;&#10;Attributes:&#10; &#160;&#160;&#160;source_model_full_name (FullyQualifiedName): Fully qualified name of the source model,&#10; &#160;&#160;&#160;&#160;&#160;&#160;&#160;i.e., the model that contains a field that references the target model.&#10; &#160;&#160;&#160;source_field_name (str): Name of the field on the source model that references the target&#10; &#160;&#160;&#160;&#160;&#160;&#160;&#160;model.&#10; &#160;&#160;&#160;target_model_full_name (FullyQualifiedName): Fully qualified name of the target model,&#10; &#160;&#160;&#160;&#160;&#160;&#160;&#160;i.e., the model that is referenced by the source model&#39;s field.&#10; &#160;&#160;&#160;target_cardinality (Cardinality): Cardinality of the target model in the relationship,&#10; &#160;&#160;&#160;&#160;&#160;&#160;&#160;e.g., if the relationship is one (source) to many (target), this value will be&#10; &#160;&#160;&#160;&#160;&#160;&#160;&#160;`Cardinality.MANY`.&#10; &#160;&#160;&#160;target_modality (Modality): Modality of the target model in the relationship, e.g., if the&#10; &#160;&#160;&#160;&#160;&#160;&#160;&#160;relationship is one (source) to zero (target), meaning that the target is optional,&#10; &#160;&#160;&#160;&#160;&#160;&#160;&#160;this value will be `Modality.ZERO`.&#10; &#160;&#160;&#160;source_cardinality (Optional[Cardinality]): Cardinality of the source model in the&#10; &#160;&#160;&#160;&#160;&#160;&#160;&#160;relationship. This will never be set for Edges created by erdantic, but you can set it&#10; &#160;&#160;&#160;&#160;&#160;&#160;&#160;manually to notate an externally known cardinality.&#10; &#160;&#160;&#160;source_modality (Optional[Modality]): Modality of the source model in the relationship.&#10; &#160;&#160;&#160;&#160;&#160;&#160;&#160;This will never be set for Edges created by erdantic, but you can set it manually to&#10; &#160;&#160;&#160;&#160;&#160;&#160;&#160;notate an externally known modality.&#10;">
<polygon fill="none" stroke="black" points="256,-176 256,-198.5 519.25,-198.5 519.25,-176 256,-176"/>
<text text-anchor="start" x="373" y="-183.2" font-family="Times New Roman,Times,Liberation Serif,serif" font-weight="bold" font-size="14.00">Edge</text>
<polygon fill="none" stroke="black" points="256,-153.5 256,-176 400.75,-176 400.75,-153.5 256,-153.5"/>
<text text-anchor="start" x="259" y="-159.7" font-family="Times New Roman,Times,Liberation Serif,serif" font-size="14.00">source_model_full_name</text>
<polygon fill="none" stroke="black" points="400.75,-153.5 400.75,-176 519.25,-176 519.25,-153.5 400.75,-153.5"/>
<text text-anchor="start" x="403.75" y="-159.7" font-family="Times New Roman,Times,Liberation Serif,serif" font-size="14.00">FullyQualifiedName</text>
<polygon fill="none" stroke="black" points="256,-131 256,-153.5 400.75,-153.5 400.75,-131 256,-131"/>
<text text-anchor="start" x="276.62" y="-137.2" font-family="Times New Roman,Times,Liberation Serif,serif" font-size="14.00">source_field_name</text>
<polygon fill="none" stroke="black" points="400.75,-131 400.75,-153.5 519.25,-153.5 519.25,-131 400.75,-131"/>
<text text-anchor="start" x="453.25" y="-137.2" font-family="Times New Roman,Times,Liberation Serif,serif" font-size="14.00">str</text>
<polygon fill="none" stroke="black" points="256,-108.5 256,-131 400.75,-131 400.75,-108.5 256,-108.5"/>
<text text-anchor="start" x="261.25" y="-114.7" font-family="Times New Roman,Times,Liberation Serif,serif" font-size="14.00">target_model_full_name</text>
<polygon fill="none" stroke="black" points="400.75,-108.5 400.75,-131 519.25,-131 519.25,-108.5 400.75,-108.5"/>
<text text-anchor="start" x="403.75" y="-114.7" font-family="Times New Roman,Times,Liberation Serif,serif" font-size="14.00">FullyQualifiedName</text>
<polygon fill="none" stroke="black" points="256,-86 256,-108.5 400.75,-108.5 400.75,-86 256,-86"/>
<text text-anchor="start" x="280.75" y="-92.2" font-family="Times New Roman,Times,Liberation Serif,serif" font-size="14.00">target_cardinality</text>
<polygon fill="none" stroke="black" points="400.75,-86 400.75,-108.5 519.25,-108.5 519.25,-86 400.75,-86"/>
<text text-anchor="start" x="429.62" y="-92.2" font-family="Times New Roman,Times,Liberation Serif,serif" font-size="14.00">Cardinality</text>
<polygon fill="none" stroke="black" points="256,-63.5 256,-86 400.75,-86 400.75,-63.5 256,-63.5"/>
<text text-anchor="start" x="285.25" y="-69.7" font-family="Times New Roman,Times,Liberation Serif,serif" font-size="14.00">target_modality</text>
<polygon fill="none" stroke="black" points="400.75,-63.5 400.75,-86 519.25,-86 519.25,-63.5 400.75,-63.5"/>
<text text-anchor="start" x="434.88" y="-69.7" font-family="Times New Roman,Times,Liberation Serif,serif" font-size="14.00">Modality</text>
<polygon fill="none" stroke="black" points="256,-41 256,-63.5 400.75,-63.5 400.75,-41 256,-41"/>
<text text-anchor="start" x="278.5" y="-47.2" font-family="Times New Roman,Times,Liberation Serif,serif" font-size="14.00">source_cardinality</text>
<polygon fill="none" stroke="black" points="400.75,-41 400.75,-63.5 519.25,-63.5 519.25,-41 400.75,-41"/>
<text text-anchor="start" x="429.62" y="-47.2" font-family="Times New Roman,Times,Liberation Serif,serif" font-size="14.00">Cardinality</text>
<polygon fill="none" stroke="black" points="256,-18.5 256,-41 400.75,-41 400.75,-18.5 256,-18.5"/>
<text text-anchor="start" x="283" y="-24.7" font-family="Times New Roman,Times,Liberation Serif,serif" font-size="14.00">source_modality</text>
<polygon fill="none" stroke="black" points="400.75,-18.5 400.75,-41 519.25,-41 519.25,-18.5 400.75,-18.5"/>
<text text-anchor="start" x="434.88" y="-24.7" font-family="Times New Roman,Times,Liberation Serif,serif" font-size="14.00">Modality</text>
</a>
</g>
</g>
<!-- erdantic.core.FullyQualifiedName -->
<g id="node2" class="node">
<title>erdantic.core.FullyQualifiedName</title>
<g id="a_node2"><a xlink:title="erdantic.core.FullyQualifiedName&#10;&#10;Holds the fully qualified name components (module and qualified name) of a Python object.&#10;This is used to uniquely identify an object, can be used to import it.&#10;&#10;Attributes:&#10; &#160;&#160;&#160;module (str): Name of the module that the object is defined in.&#10; &#160;&#160;&#160;qual_name (str): Qualified name of the object.&#10;">
<polygon fill="none" stroke="black" points="856.5,-208.75 856.5,-231.25 981.75,-231.25 981.75,-208.75 856.5,-208.75"/>
<text text-anchor="start" x="859.5" y="-215.95" font-family="Times New Roman,Times,Liberation Serif,serif" font-weight="bold" font-size="14.00">FullyQualifiedName</text>
<polygon fill="none" stroke="black" points="856.5,-186.25 856.5,-208.75 942.38,-208.75 942.38,-186.25 856.5,-186.25"/>
<text text-anchor="start" x="878.81" y="-192.45" font-family="Times New Roman,Times,Liberation Serif,serif" font-size="14.00">module</text>
<polygon fill="none" stroke="black" points="942.38,-186.25 942.38,-208.75 981.75,-208.75 981.75,-186.25 942.38,-186.25"/>
<text text-anchor="start" x="955.31" y="-192.45" font-family="Times New Roman,Times,Liberation Serif,serif" font-size="14.00">str</text>
<polygon fill="none" stroke="black" points="856.5,-163.75 856.5,-186.25 942.38,-186.25 942.38,-163.75 856.5,-163.75"/>
<text text-anchor="start" x="869.44" y="-169.95" font-family="Times New Roman,Times,Liberation Serif,serif" font-size="14.00">qual_name</text>
<polygon fill="none" stroke="black" points="942.38,-163.75 942.38,-186.25 981.75,-186.25 981.75,-163.75 942.38,-163.75"/>
<text text-anchor="start" x="955.31" y="-169.95" font-family="Times New Roman,Times,Liberation Serif,serif" font-size="14.00">str</text>
</a>
</g>
</g>
<!-- erdantic.core.Edge&#45;&gt;erdantic.core.FullyQualifiedName -->
<g id="edge1" class="edge">
<title>erdantic.core.Edge:e&#45;&gt;erdantic.core.FullyQualifiedName:w</title>
<path fill="none" stroke="black" d="M528.96,-164.77C646.18,-165.26 679.55,-174.92 798.5,-201.5 819.34,-206.16 826.56,-214.98 841.97,-218.5"/>
<polyline fill="none" stroke="black" points="519.25,-164.75 524.25,-164.76"/>
<polyline fill="none" stroke="black" points="524.25,-164.76 529.25,-164.77"/>
<polyline fill="none" stroke="black" points="856.5,-220 851.53,-219.49"/>
<polygon fill="black" stroke="black" points="851.05,-214.41 850.02,-224.36 848.03,-224.15 849.06,-214.2 851.05,-214.41"/>
<polyline fill="none" stroke="black" points="851.53,-219.49 846.55,-218.97"/>
<polygon fill="black" stroke="black" points="846.07,-213.9 845.04,-223.84 843.06,-223.64 844.08,-213.69 846.07,-213.9"/>
<polyline fill="none" stroke="black" points="846.55,-218.97 841.58,-218.46"/>
</g>
<!-- erdantic.core.Edge&#45;&gt;erdantic.core.FullyQualifiedName -->
<g id="edge2" class="edge">
<title>erdantic.core.Edge:e&#45;&gt;erdantic.core.FullyQualifiedName:w</title>
<path fill="none" stroke="black" d="M528.98,-119.71C646.75,-118.69 690.43,-100.14 798.5,-156.5 827.1,-171.41 821.52,-206.37 842.03,-216.93"/>
<polyline fill="none" stroke="black" points="519.25,-119.75 524.25,-119.73"/>
<polyline fill="none" stroke="black" points="524.25,-119.73 529.25,-119.71"/>
<polyline fill="none" stroke="black" points="856.5,-220 851.61,-218.96"/>
<polygon fill="black" stroke="black" points="851.67,-213.86 849.59,-223.64 847.64,-223.23 849.71,-213.45 851.67,-213.86"/>
<polyline fill="none" stroke="black" points="851.61,-218.96 846.72,-217.92"/>
<polygon fill="black" stroke="black" points="846.78,-212.82 844.7,-222.6 842.74,-222.19 844.82,-212.41 846.78,-212.82"/>
<polyline fill="none" stroke="black" points="846.72,-217.92 841.83,-216.88"/>
</g>
<!-- erdantic.core.EntityRelationshipDiagram -->
<g id="node3" class="node">
<title>erdantic.core.EntityRelationshipDiagram</title>
<g id="a_node3"><a xlink:title="erdantic.core.EntityRelationshipDiagram&#10;&#10;Holds information about an entity relationship diagram for a set of data model classes and&#10;their relationships, and provides methods to render the diagram.&#10;&#10;Attributes:&#10; &#160;&#160;&#160;models (SortedDict[str, ModelInfo]): Mapping of ModelInfo instances for models included&#10; &#160;&#160;&#160;&#160;&#160;&#160;&#160;in the diagram. Each key is the string representation of the fully qualified name of&#10; &#160;&#160;&#160;&#160;&#160;&#160;&#160;the model.&#10; &#160;&#160;&#160;edges (SortedSet[Edge]): Set of edges representing relationships between the models.&#10;">
<polygon fill="none" stroke="black" points="0,-298.75 0,-321.25 198,-321.25 198,-298.75 0,-298.75"/>
<text text-anchor="start" x="18.75" y="-305.95" font-family="Times New Roman,Times,Liberation Serif,serif" font-weight="bold" font-size="14.00">EntityRelationshipDiagram</text>
<polygon fill="none" stroke="black" points="0,-276.25 0,-298.75 45.75,-298.75 45.75,-276.25 0,-276.25"/>
<text text-anchor="start" x="3" y="-282.45" font-family="Times New Roman,Times,Liberation Serif,serif" font-size="14.00">models</text>
<polygon fill="none" stroke="black" points="45.75,-276.25 45.75,-298.75 198,-298.75 198,-276.25 45.75,-276.25"/>
<text text-anchor="start" x="48.75" y="-282.45" font-family="Times New Roman,Times,Liberation Serif,serif" font-size="14.00">SortedDict[str, ModelInfo]</text>
<polygon fill="none" stroke="black" points="0,-253.75 0,-276.25 45.75,-276.25 45.75,-253.75 0,-253.75"/>
<text text-anchor="start" x="7.5" y="-259.95" font-family="Times New Roman,Times,Liberation Serif,serif" font-size="14.00">edges</text>
<polygon fill="none" stroke="black" points="45.75,-253.75 45.75,-276.25 198,-276.25 198,-253.75 45.75,-253.75"/>
<text text-anchor="start" x="64.12" y="-259.95" font-family="Times New Roman,Times,Liberation Serif,serif" font-size="14.00">SortedDict[str, Edge]</text>
</a>
</g>
</g>
<!-- erdantic.core.EntityRelationshipDiagram&#45;&gt;erdantic.core.Edge -->
<g id="edge3" class="edge">
<title>erdantic.core.EntityRelationshipDiagram:e&#45;&gt;erdantic.core.Edge:w</title>
<path fill="none" stroke="black" d="M207.62,-263.38C232.23,-253.96 221.7,-206.24 241.48,-191.55"/>
<polyline fill="none" stroke="black" points="198,-265 202.93,-264.17"/>
<polyline fill="none" stroke="black" points="202.93,-264.17 207.86,-263.34"/>
<polygon fill="black" stroke="black" points="246.09,-190.19 256.96,-191.66 251.21,-188.67 255.36,-187.44 255.36,-187.44 255.36,-187.44 251.21,-188.67 254.4,-183.03 246.09,-190.19"/>
<polyline fill="none" stroke="black" points="244.92,-190.53 240.13,-191.95"/>
</g>
<!-- erdantic.core.ModelInfo -->
<g id="node4" class="node">
<title>erdantic.core.ModelInfo</title>
<g id="a_node4"><a xlink:title="erdantic.core.ModelInfo&#10;&#10;Holds information about an analyzed data model class.&#10;&#10;Attributes:&#10; &#160;&#160;&#160;full_name (FullyQualifiedName): Fully qualified name of the data model class.&#10; &#160;&#160;&#160;name (str): Name of the data model class.&#10; &#160;&#160;&#160;fields (Dict[str, FieldInfo]): A mapping to FieldInfo instances for each field of the data&#10; &#160;&#160;&#160;&#160;&#160;&#160;&#160;model class.&#10; &#160;&#160;&#160;description (str): Docstring or other description of the data model class.&#10;">
<polygon fill="none" stroke="black" points="295.38,-354.25 295.38,-376.75 479.88,-376.75 479.88,-354.25 295.38,-354.25"/>
<text text-anchor="start" x="356.88" y="-361.45" font-family="Times New Roman,Times,Liberation Serif,serif" font-weight="bold" font-size="14.00">ModelInfo</text>
<polygon fill="none" stroke="black" points="295.38,-331.75 295.38,-354.25 361.38,-354.25 361.38,-331.75 295.38,-331.75"/>
<text text-anchor="start" x="300.62" y="-337.95" font-family="Times New Roman,Times,Liberation Serif,serif" font-size="14.00">full_name</text>
<polygon fill="none" stroke="black" points="361.38,-331.75 361.38,-354.25 479.88,-354.25 479.88,-331.75 361.38,-331.75"/>
<text text-anchor="start" x="364.38" y="-337.95" font-family="Times New Roman,Times,Liberation Serif,serif" font-size="14.00">FullyQualifiedName</text>
<polygon fill="none" stroke="black" points="295.38,-309.25 295.38,-331.75 361.38,-331.75 361.38,-309.25 295.38,-309.25"/>
<text text-anchor="start" x="313.38" y="-315.45" font-family="Times New Roman,Times,Liberation Serif,serif" font-size="14.00">name</text>
<polygon fill="none" stroke="black" points="361.38,-309.25 361.38,-331.75 479.88,-331.75 479.88,-309.25 361.38,-309.25"/>
<text text-anchor="start" x="413.88" y="-315.45" font-family="Times New Roman,Times,Liberation Serif,serif" font-size="14.00">str</text>
<polygon fill="none" stroke="black" points="295.38,-286.75 295.38,-309.25 361.38,-309.25 361.38,-286.75 295.38,-286.75"/>
<text text-anchor="start" x="313.38" y="-292.95" font-family="Times New Roman,Times,Liberation Serif,serif" font-size="14.00">fields</text>
<polygon fill="none" stroke="black" points="361.38,-286.75 361.38,-309.25 479.88,-309.25 479.88,-286.75 361.38,-286.75"/>
<text text-anchor="start" x="370.75" y="-292.95" font-family="Times New Roman,Times,Liberation Serif,serif" font-size="14.00">dict[str, FieldInfo]</text>
<polygon fill="none" stroke="black" points="295.38,-264.25 295.38,-286.75 361.38,-286.75 361.38,-264.25 295.38,-264.25"/>
<text text-anchor="start" x="298.38" y="-270.45" font-family="Times New Roman,Times,Liberation Serif,serif" font-size="14.00">description</text>
<polygon fill="none" stroke="black" points="361.38,-264.25 361.38,-286.75 479.88,-286.75 479.88,-264.25 361.38,-264.25"/>
<text text-anchor="start" x="413.88" y="-270.45" font-family="Times New Roman,Times,Liberation Serif,serif" font-size="14.00">str</text>
</a>
</g>
</g>
<!-- erdantic.core.EntityRelationshipDiagram&#45;&gt;erdantic.core.ModelInfo -->
<g id="edge4" class="edge">
<title>erdantic.core.EntityRelationshipDiagram:e&#45;&gt;erdantic.core.ModelInfo:w</title>
<path fill="none" stroke="black" d="M207.83,-288.43C246.82,-296.27 244.12,-351.28 279.48,-363.22"/>
<polyline fill="none" stroke="black" points="198,-287.5 202.98,-287.97"/>
<polyline fill="none" stroke="black" points="202.98,-287.97 207.96,-288.44"/>
<polygon fill="black" stroke="black" points="284.16,-363.93 293.36,-369.9 289.43,-364.74 293.71,-365.4 293.71,-365.4 293.71,-365.4 289.43,-364.74 294.73,-361 284.16,-363.93"/>
<polyline fill="none" stroke="black" points="282.96,-363.75 278.01,-362.99"/>
</g>
<!-- erdantic.core.ModelInfo&#45;&gt;erdantic.core.FullyQualifiedName -->
<g id="edge7" class="edge">
<title>erdantic.core.ModelInfo:e&#45;&gt;erdantic.core.FullyQualifiedName:w</title>
<path fill="none" stroke="black" d="M490.68,-343.1C624.9,-345.73 681.74,-401.09 798.5,-327.5 839.4,-301.72 810.39,-236.59 841.91,-222.65"/>
<polyline fill="none" stroke="black" points="480.88,-343 485.87,-343.05"/>
<polyline fill="none" stroke="black" points="485.87,-343.05 490.87,-343.1"/>
<polyline fill="none" stroke="black" points="856.5,-220 851.58,-220.89"/>
<polygon fill="black" stroke="black" points="849.7,-216.15 851.49,-225.99 849.52,-226.35 847.73,-216.51 849.7,-216.15"/>
<polyline fill="none" stroke="black" points="851.58,-220.89 846.66,-221.79"/>
<polygon fill="black" stroke="black" points="844.78,-217.05 846.57,-226.89 844.6,-227.24 842.82,-217.4 844.78,-217.05"/>
<polyline fill="none" stroke="black" points="846.66,-221.79 841.74,-222.68"/>
</g>
<!-- erdantic.core.FieldInfo -->
<g id="node5" class="node">
<title>erdantic.core.FieldInfo</title>
<g id="a_node5"><a xlink:title="erdantic.core.FieldInfo&#10;&#10;Holds information about a field of an analyzed data model class.&#10;&#10;Attributes:&#10; &#160;&#160;&#160;model_full_name (FullyQualifiedName): Fully qualified name of the data model class that&#10; &#160;&#160;&#160;&#160;&#160;&#160;&#160;the field belongs to.&#10; &#160;&#160;&#160;name (str): Name of the field.&#10; &#160;&#160;&#160;type_name (str): String representation of the field&#39;s type.&#10;">
<polygon fill="none" stroke="black" points="577.25,-287 577.25,-309.5 798.5,-309.5 798.5,-287 577.25,-287"/>
<text text-anchor="start" x="661.25" y="-294.2" font-family="Times New Roman,Times,Liberation Serif,serif" font-weight="bold" font-size="14.00">FieldInfo</text>
<polygon fill="none" stroke="black" points="577.25,-264.5 577.25,-287 680,-287 680,-264.5 577.25,-264.5"/>
<text text-anchor="start" x="580.25" y="-270.7" font-family="Times New Roman,Times,Liberation Serif,serif" font-size="14.00">model_full_name</text>
<polygon fill="none" stroke="black" points="680,-264.5 680,-287 798.5,-287 798.5,-264.5 680,-264.5"/>
<text text-anchor="start" x="683" y="-270.7" font-family="Times New Roman,Times,Liberation Serif,serif" font-size="14.00">FullyQualifiedName</text>
<polygon fill="none" stroke="black" points="577.25,-242 577.25,-264.5 680,-264.5 680,-242 577.25,-242"/>
<text text-anchor="start" x="613.62" y="-248.2" font-family="Times New Roman,Times,Liberation Serif,serif" font-size="14.00">name</text>
<polygon fill="none" stroke="black" points="680,-242 680,-264.5 798.5,-264.5 798.5,-242 680,-242"/>
<text text-anchor="start" x="732.5" y="-248.2" font-family="Times New Roman,Times,Liberation Serif,serif" font-size="14.00">str</text>
<polygon fill="none" stroke="black" points="577.25,-219.5 577.25,-242 680,-242 680,-219.5 577.25,-219.5"/>
<text text-anchor="start" x="598.62" y="-225.7" font-family="Times New Roman,Times,Liberation Serif,serif" font-size="14.00">type_name</text>
<polygon fill="none" stroke="black" points="680,-219.5 680,-242 798.5,-242 798.5,-219.5 680,-219.5"/>
<text text-anchor="start" x="732.5" y="-225.7" font-family="Times New Roman,Times,Liberation Serif,serif" font-size="14.00">str</text>
</a>
</g>
</g>
<!-- erdantic.core.ModelInfo&#45;&gt;erdantic.core.FieldInfo -->
<g id="edge6" class="edge">
<title>erdantic.core.ModelInfo:e&#45;&gt;erdantic.core.FieldInfo:w</title>
<path fill="none" stroke="black" d="M490.8,-298C520.78,-298.03 534.04,-298.19 562.13,-298.24"/>
<polyline fill="none" stroke="black" points="480.88,-298 485.87,-298"/>
<polyline fill="none" stroke="black" points="485.87,-298 490.87,-298"/>
<polygon fill="black" stroke="black" points="566.92,-298.24 576.91,-302.75 572.25,-298.25 576.58,-298.25 576.58,-298.25 576.58,-298.25 572.25,-298.25 576.92,-293.75 566.92,-298.24"/>
<polyline fill="none" stroke="black" points="565.7,-298.24 560.7,-298.24"/>
</g>
<!-- erdantic.core.FieldInfo&#45;&gt;erdantic.core.FullyQualifiedName -->
<g id="edge5" class="edge">
<title>erdantic.core.FieldInfo:e&#45;&gt;erdantic.core.FullyQualifiedName:w</title>
<path fill="none" stroke="black" d="M808.28,-274.02C827.52,-266.37 826.21,-235.49 842.2,-224.18"/>
<polyline fill="none" stroke="black" points="798.5,-275.75 803.42,-274.88"/>
<polyline fill="none" stroke="black" points="803.42,-274.88 808.35,-274.01"/>
<polyline fill="none" stroke="black" points="856.5,-220 851.7,-221.4"/>
<polygon fill="black" stroke="black" points="849.34,-216.88 852.14,-226.48 850.22,-227.04 847.42,-217.45 849.34,-216.88"/>
<polyline fill="none" stroke="black" points="851.7,-221.4 846.9,-222.81"/>
<polygon fill="black" stroke="black" points="844.54,-218.29 847.34,-227.89 845.42,-228.45 842.62,-218.85 844.54,-218.29"/>
<polyline fill="none" stroke="black" points="846.9,-222.81 842.1,-224.21"/>
</g>
</g>
</svg>
